<svg width="263" height="350" viewBox="0 0 263 350" fill="none" xmlns="http://www.w3.org/2000/svg">
<rect width="263" height="350" rx="11" fill="white"/>
<rect x="9" y="11" width="246" height="328" rx="11" fill="#142F49"/>
<g filter="url(#filter0_d_39_135)">
<path d="M89.8116 151C88.3982 151 87.0116 150.613 85.6516 149.84C84.3182 149.067 83.0516 148.053 81.8516 146.8C80.6516 145.52 79.5449 144.12 78.5316 142.6C77.5182 141.053 76.6116 139.507 75.8116 137.96C75.0382 136.413 74.3982 134.987 73.8916 133.68C73.4116 132.347 73.0916 131.267 72.9316 130.44L76.9716 121.32C77.5049 123.053 78.0782 124.88 78.6916 126.8C79.3316 128.693 79.9849 130.587 80.6516 132.48C81.3449 134.373 82.0382 136.16 82.7316 137.84C83.4249 139.52 84.1049 141.027 84.7716 142.36C85.4649 143.667 86.1182 144.693 86.7316 145.44C87.3716 146.187 87.9582 146.56 88.4916 146.56C89.1582 146.56 89.5716 146.107 89.7316 145.2C89.9182 144.293 89.9182 143.093 89.7316 141.6C89.5716 140.107 89.2782 138.453 88.8516 136.64C88.4516 134.8 87.9849 132.947 87.4516 131.08C86.9449 129.213 86.4382 127.467 85.9316 125.84C85.4249 124.187 84.9982 122.8 84.6516 121.68L94.8116 119C95.2382 120.173 95.6649 121.627 96.0916 123.36C96.5182 125.067 96.8916 126.92 97.2116 128.92C97.5316 130.92 97.7449 132.96 97.8516 135.04C97.9849 137.093 97.9582 139.08 97.7716 141C97.5849 142.893 97.1849 144.6 96.5716 146.12C95.9849 147.613 95.1449 148.8 94.0516 149.68C92.9582 150.56 91.5449 151 89.8116 151ZM76.6116 151.24L65.5316 151C65.9849 146.387 66.2516 141.68 66.3316 136.88C66.4382 132.08 66.3049 127.4 65.9316 122.84L76.9716 121.32L75.0116 129.72C75.0916 131.48 75.1982 133.28 75.3316 135.12C75.4649 136.933 75.5982 138.707 75.7316 140.44C75.8916 142.173 76.0249 143.773 76.1316 145.24C76.2649 146.68 76.3716 147.933 76.4516 149C76.5582 150.04 76.6116 150.787 76.6116 151.24ZM119.063 151.08C116.93 151.08 114.877 150.747 112.903 150.08C110.957 149.413 109.21 148.453 107.663 147.2C106.143 145.947 104.93 144.44 104.023 142.68C103.143 140.92 102.703 138.947 102.703 136.76C102.703 133.933 103.223 131.533 104.263 129.56C105.33 127.56 106.717 125.947 108.423 124.72C110.157 123.467 112.063 122.547 114.143 121.96C116.25 121.373 118.343 121.08 120.423 121.08C122.077 121.08 123.663 121.253 125.183 121.6C126.73 121.92 128.077 122.387 129.223 123L128.263 129.76C127.25 129.387 126.223 129.12 125.183 128.96C124.143 128.8 123.117 128.72 122.103 128.72C120.343 128.72 118.81 129.107 117.503 129.88C116.197 130.653 115.183 131.68 114.463 132.96C113.743 134.24 113.383 135.653 113.383 137.2C113.383 139.04 113.61 140.56 114.063 141.76C114.517 142.933 115.13 143.853 115.903 144.52C116.677 145.187 117.543 145.653 118.503 145.92C119.49 146.187 120.503 146.32 121.543 146.32C122.637 146.32 123.743 146.2 124.863 145.96C126.01 145.693 127.09 145.347 128.103 144.92V148.84C126.663 149.587 125.17 150.147 123.623 150.52C122.103 150.893 120.583 151.08 119.063 151.08ZM149.531 151.08C147.397 151.08 145.344 150.747 143.371 150.08C141.424 149.413 139.677 148.453 138.131 147.2C136.611 145.947 135.397 144.44 134.491 142.68C133.611 140.92 133.171 138.947 133.171 136.76C133.171 133.933 133.691 131.533 134.731 129.56C135.797 127.56 137.184 125.947 138.891 124.72C140.624 123.467 142.531 122.547 144.611 121.96C146.717 121.373 148.811 121.08 150.891 121.08C152.544 121.08 154.131 121.253 155.651 121.6C157.197 121.92 158.544 122.387 159.691 123L158.731 129.76C157.717 129.387 156.691 129.12 155.651 128.96C154.611 128.8 153.584 128.72 152.571 128.72C150.811 128.72 149.277 129.107 147.971 129.88C146.664 130.653 145.651 131.68 144.931 132.96C144.211 134.24 143.851 135.653 143.851 137.2C143.851 139.04 144.077 140.56 144.531 141.76C144.984 142.933 145.597 143.853 146.371 144.52C147.144 145.187 148.011 145.653 148.971 145.92C149.957 146.187 150.971 146.32 152.011 146.32C153.104 146.32 154.211 146.2 155.331 145.96C156.477 145.693 157.557 145.347 158.571 144.92V148.84C157.131 149.587 155.637 150.147 154.091 150.52C152.571 150.893 151.051 151.08 149.531 151.08ZM177.198 151.32C175.224 151.32 173.504 150.813 172.038 149.8C170.598 148.76 169.358 147.387 168.318 145.68C167.304 143.973 166.478 142.067 165.838 139.96C165.198 137.827 164.718 135.653 164.398 133.44C164.078 131.2 163.878 129.053 163.798 127C163.744 124.947 163.771 123.16 163.878 121.64L174.838 120C174.731 120.507 174.638 121.373 174.558 122.6C174.478 123.8 174.424 125.213 174.398 126.84C174.371 128.467 174.384 130.173 174.438 131.96C174.491 133.747 174.611 135.507 174.798 137.24C174.984 138.973 175.238 140.547 175.558 141.96C175.878 143.347 176.291 144.467 176.798 145.32C177.304 146.147 177.918 146.56 178.638 146.56C179.784 146.56 180.744 146.12 181.518 145.24C182.291 144.333 182.918 143.133 183.398 141.64C183.878 140.12 184.238 138.467 184.478 136.68C184.744 134.867 184.904 133.04 184.958 131.2C185.038 129.333 185.051 127.6 184.998 126C184.944 124.4 184.864 123.067 184.758 122L188.918 130.56C188.891 131.867 188.824 133.28 188.718 134.8C188.611 136.32 188.424 137.867 188.158 139.44C187.891 140.987 187.491 142.467 186.958 143.88C186.451 145.293 185.771 146.56 184.918 147.68C184.064 148.8 182.998 149.693 181.718 150.36C180.464 151 178.958 151.32 177.198 151.32ZM185.838 151.72C185.944 148.84 185.998 146.16 185.998 143.68C186.024 141.2 185.998 138.813 185.918 136.52C185.838 134.227 185.704 131.907 185.518 129.56C185.331 127.187 185.078 124.667 184.758 122L195.838 120.32C195.891 122.773 195.904 125.16 195.878 127.48C195.851 129.773 195.758 132.093 195.598 134.44C195.464 136.787 195.264 139.253 194.998 141.84C194.731 144.427 194.398 147.24 193.998 150.28L185.838 151.72ZM49.2416 218.8C49.3482 216.293 49.4282 214.053 49.4816 212.08C49.5349 210.107 49.5482 208.267 49.5216 206.56C49.5216 204.827 49.4816 203.12 49.4016 201.44C49.3482 199.733 49.2416 197.933 49.0816 196.04C48.9216 194.12 48.7216 191.96 48.4816 189.56L59.5616 190.44C59.5616 192.6 59.5349 194.547 59.4816 196.28C59.4549 198.013 59.3882 199.667 59.2816 201.24C59.2016 202.787 59.0682 204.36 58.8816 205.96C58.7216 207.533 58.5082 209.253 58.2416 211.12C58.0016 212.96 57.7082 215.067 57.3616 217.44L49.2416 218.8ZM65.6816 207.48C64.0549 207.427 62.2682 207.333 60.3216 207.2C58.3749 207.04 56.3349 206.827 54.2016 206.56L54.2416 202.08C56.6682 202.32 58.8149 202.453 60.6816 202.48C62.5749 202.507 64.2816 202.36 65.8016 202.04L65.6816 207.48ZM69.4416 195.64C67.7616 195.187 66.0816 194.893 64.4016 194.76C62.7482 194.6 61.1616 194.52 59.6416 194.52C58.1216 194.52 56.7216 194.56 55.4416 194.64C54.1882 194.693 53.1349 194.72 52.2816 194.72L48.4816 189.56C49.4949 189.453 50.7349 189.347 52.2016 189.24C53.6949 189.107 55.2816 188.987 56.9616 188.88C58.6682 188.773 60.3616 188.68 62.0416 188.6C63.7216 188.493 65.2682 188.413 66.6816 188.36C68.1216 188.28 69.3082 188.227 70.2416 188.2L69.4416 195.64ZM146.196 197.32C148.143 194.84 150.023 192.987 151.836 191.76C153.676 190.507 155.449 189.68 157.156 189.28C158.863 188.88 160.463 188.68 161.956 188.68C164.009 188.68 165.769 189.147 167.236 190.08C168.729 191.013 169.876 192.267 170.676 193.84C171.476 195.413 171.876 197.173 171.876 199.12C171.876 200.827 171.476 202.6 170.676 204.44C169.876 206.28 168.676 208.093 167.076 209.88C165.476 211.667 163.476 213.347 161.076 214.92C158.703 216.467 155.929 217.827 152.756 219L152.556 214C154.396 212.987 155.969 211.867 157.276 210.64C158.609 209.413 159.689 208.147 160.516 206.84C161.369 205.533 161.983 204.24 162.356 202.96C162.756 201.68 162.956 200.48 162.956 199.36C162.956 198.373 162.783 197.48 162.436 196.68C162.089 195.853 161.596 195.2 160.956 194.72C160.343 194.213 159.583 193.96 158.676 193.96C157.876 193.96 157.076 194.067 156.276 194.28C155.476 194.493 154.663 194.867 153.836 195.4C153.036 195.907 152.209 196.64 151.356 197.6C150.529 198.533 149.676 199.72 148.796 201.16L146.196 197.32ZM144.596 219.32C144.703 216.387 144.756 213.733 144.756 211.36C144.783 208.987 144.756 206.693 144.676 204.48C144.596 202.267 144.463 200 144.276 197.68C144.089 195.36 143.836 192.8 143.516 190L154.596 188.32C154.596 190.96 154.583 193.32 154.556 195.4C154.529 197.48 154.476 199.413 154.396 201.2C154.343 202.987 154.249 204.773 154.116 206.56C153.983 208.32 153.809 210.2 153.596 212.2C153.383 214.2 153.103 216.467 152.756 219L144.596 219.32ZM176.938 219.72C177.071 216.147 177.125 212.76 177.098 209.56C177.071 206.36 176.951 203.173 176.738 200C176.551 196.827 176.258 193.493 175.858 190L186.938 188.32C186.991 191.067 186.991 193.627 186.938 196C186.911 198.347 186.818 200.653 186.658 202.92C186.525 205.187 186.325 207.56 186.058 210.04C185.818 212.52 185.498 215.267 185.098 218.28L176.938 219.72ZM193.101 218.48C193.208 215.973 193.288 213.747 193.341 211.8C193.394 209.853 193.408 208.04 193.381 206.36C193.381 204.653 193.341 202.973 193.261 201.32C193.208 199.667 193.101 197.893 192.941 196C192.781 194.107 192.581 191.96 192.341 189.56L203.021 190.44C203.021 192.6 203.008 194.547 202.981 196.28C202.981 197.987 202.954 199.6 202.901 201.12C202.848 202.64 202.754 204.187 202.621 205.76C202.488 207.307 202.301 209 202.061 210.84C201.848 212.653 201.568 214.747 201.221 217.12L193.101 218.48ZM215.301 219.2C214.101 219.2 212.594 219.187 210.781 219.16C208.994 219.133 207.061 219.08 204.981 219C202.901 218.947 200.834 218.88 198.781 218.8C196.728 218.693 194.834 218.587 193.101 218.48L195.141 213.76C196.394 213.76 197.821 213.747 199.421 213.72C201.048 213.667 202.768 213.6 204.581 213.52C206.394 213.44 208.208 213.32 210.021 213.16C211.861 213 213.621 212.8 215.301 212.56V219.2ZM210.061 207.48C208.541 207.16 206.768 207.013 204.741 207.04C202.741 207.067 200.528 207.2 198.101 207.44L198.061 202.96C200.194 202.667 202.301 202.453 204.381 202.32C206.461 202.16 208.314 202.067 209.941 202.04L210.061 207.48ZM214.501 195.64C212.821 195.293 211.088 195.053 209.301 194.92C207.514 194.787 205.781 194.707 204.101 194.68C202.421 194.653 200.888 194.653 199.501 194.68C198.114 194.707 196.994 194.72 196.141 194.72L192.341 189.56C193.354 189.453 194.608 189.347 196.101 189.24C197.621 189.107 199.248 188.987 200.981 188.88C202.714 188.773 204.434 188.68 206.141 188.6C207.874 188.493 209.461 188.413 210.901 188.36C212.368 188.28 213.568 188.227 214.501 188.2V195.64Z" fill="white"/>
<path d="M87.5053 219.52C84.892 219.52 82.5986 219.093 80.6253 218.24C78.6786 217.387 77.052 216.24 75.7453 214.8C74.4386 213.333 73.452 211.693 72.7853 209.88C72.1453 208.067 71.8253 206.2 71.8253 204.28C71.8253 202.333 72.1586 200.44 72.8253 198.6C73.492 196.733 74.4786 195.053 75.7853 193.56C77.1186 192.067 78.7586 190.88 80.7053 190C82.652 189.093 84.892 188.64 87.4253 188.64C90.0386 188.64 92.3186 189.08 94.2653 189.96C96.2386 190.84 97.892 192.027 99.2253 193.52C100.559 194.987 101.559 196.64 102.225 198.48C102.892 200.32 103.225 202.2 103.225 204.12C103.225 206.04 102.892 207.92 102.225 209.76C101.559 211.6 100.559 213.253 99.2253 214.72C97.9186 216.187 96.2786 217.36 94.3053 218.24C92.3586 219.093 90.092 219.52 87.5053 219.52ZM88.1853 210C89.3853 210 90.452 209.733 91.3853 209.2C92.3453 208.667 93.1453 207.96 93.7853 207.08C94.4253 206.2 94.9053 205.213 95.2253 204.12C95.572 203.027 95.7453 201.907 95.7453 200.76C95.7453 199.613 95.572 198.533 95.2253 197.52C94.9053 196.48 94.4386 195.56 93.8253 194.76C93.212 193.933 92.4653 193.293 91.5853 192.84C90.7053 192.36 89.7186 192.12 88.6253 192.12C86.9986 192.12 85.6653 192.533 84.6253 193.36C83.5853 194.16 82.812 195.227 82.3053 196.56C81.7986 197.867 81.5453 199.307 81.5453 200.88C81.5453 202.027 81.692 203.147 81.9853 204.24C82.2786 205.307 82.7053 206.28 83.2653 207.16C83.852 208.013 84.5586 208.707 85.3853 209.24C86.212 209.747 87.1453 210 88.1853 210ZM123.051 219.52C120.437 219.52 118.144 219.093 116.171 218.24C114.224 217.387 112.597 216.24 111.291 214.8C109.984 213.333 108.997 211.693 108.331 209.88C107.691 208.067 107.371 206.2 107.371 204.28C107.371 202.333 107.704 200.44 108.371 198.6C109.037 196.733 110.024 195.053 111.331 193.56C112.664 192.067 114.304 190.88 116.251 190C118.197 189.093 120.437 188.64 122.971 188.64C125.584 188.64 127.864 189.08 129.811 189.96C131.784 190.84 133.437 192.027 134.771 193.52C136.104 194.987 137.104 196.64 137.771 198.48C138.437 200.32 138.771 202.2 138.771 204.12C138.771 206.04 138.437 207.92 137.771 209.76C137.104 211.6 136.104 213.253 134.771 214.72C133.464 216.187 131.824 217.36 129.851 218.24C127.904 219.093 125.637 219.52 123.051 219.52ZM123.731 210C124.931 210 125.997 209.733 126.931 209.2C127.891 208.667 128.691 207.96 129.331 207.08C129.971 206.2 130.451 205.213 130.771 204.12C131.117 203.027 131.291 201.907 131.291 200.76C131.291 199.613 131.117 198.533 130.771 197.52C130.451 196.48 129.984 195.56 129.371 194.76C128.757 193.933 128.011 193.293 127.131 192.84C126.251 192.36 125.264 192.12 124.171 192.12C122.544 192.12 121.211 192.533 120.171 193.36C119.131 194.16 118.357 195.227 117.851 196.56C117.344 197.867 117.091 199.307 117.091 200.88C117.091 202.027 117.237 203.147 117.531 204.24C117.824 205.307 118.251 206.28 118.811 207.16C119.397 208.013 120.104 208.707 120.931 209.24C121.757 209.747 122.691 210 123.731 210Z" fill="#D74C4C"/>
</g>
<g filter="url(#filter1_d_39_135)">
<path d="M70.5 229C74.5 239 90.3388 242.5 103.5 242.5C116.661 242.5 131 237.5 138.5 229" stroke="#D74C4C" stroke-width="11" stroke-linecap="round"/>
</g>
<defs>
<filter id="filter0_d_39_135" x="44.4814" y="119" width="174.819" height="108.72" filterUnits="userSpaceOnUse" color-interpolation-filters="sRGB">
<feFlood flood-opacity="0" result="BackgroundImageFix"/>
<feColorMatrix in="SourceAlpha" type="matrix" values="0 0 0 0 0 0 0 0 0 0 0 0 0 0 0 0 0 0 127 0" result="hardAlpha"/>
<feOffset dy="4"/>
<feGaussianBlur stdDeviation="2"/>
<feComposite in2="hardAlpha" operator="out"/>
<feColorMatrix type="matrix" values="0 0 0 0 0 0 0 0 0 0 0 0 0 0 0 0 0 0 0.25 0"/>
<feBlend mode="normal" in2="BackgroundImageFix" result="effect1_dropShadow_39_135"/>
<feBlend mode="normal" in="SourceGraphic" in2="effect1_dropShadow_39_135" result="shape"/>
</filter>
<filter id="filter1_d_39_135" x="60.9985" y="223.499" width="87.0015" height="32.5015" filterUnits="userSpaceOnUse" color-interpolation-filters="sRGB">
<feFlood flood-opacity="0" result="BackgroundImageFix"/>
<feColorMatrix in="SourceAlpha" type="matrix" values="0 0 0 0 0 0 0 0 0 0 0 0 0 0 0 0 0 0 127 0" result="hardAlpha"/>
<feOffset dy="4"/>
<feGaussianBlur stdDeviation="2"/>
<feComposite in2="hardAlpha" operator="out"/>
<feColorMatrix type="matrix" values="0 0 0 0 0 0 0 0 0 0 0 0 0 0 0 0 0 0 0.25 0"/>
<feBlend mode="normal" in2="BackgroundImageFix" result="effect1_dropShadow_39_135"/>
<feBlend mode="normal" in="SourceGraphic" in2="effect1_dropShadow_39_135" result="shape"/>
</filter>
</defs>
</svg>
