<svg width="263" height="350" viewBox="0 0 263 350" fill="none" xmlns="http://www.w3.org/2000/svg">
<rect width="263" height="350" rx="11" fill="#C69179"/>
<rect y="136" width="263" height="82" fill="white"/>
<g filter="url(#filter0_d_39_134)">
<path d="M50.98 154.305H57.8V163.215H50.98V154.305ZM39.98 160.63H46.305V200.285L39.98 201.55V160.63ZM43.665 160.63H69.57V184.995H43.665V179.275H63.08V166.405H43.665V160.63ZM43.555 170.035H66.435V175.535H43.555V170.035ZM35.745 198.91C37.4683 198.69 39.43 198.433 41.63 198.14C43.83 197.81 46.1583 197.462 48.615 197.095C51.0717 196.692 53.5283 196.288 55.985 195.885L56.425 201.715C54.1883 202.118 51.9333 202.522 49.66 202.925C47.3867 203.328 45.1683 203.713 43.005 204.08C40.8783 204.447 38.9167 204.795 37.12 205.125L35.745 198.91ZM57.03 182.905C58.35 187.085 60.4217 190.715 63.245 193.795C66.0683 196.875 69.68 199.13 74.08 200.56C73.6033 200.963 73.09 201.495 72.54 202.155C72.0267 202.815 71.5133 203.475 71 204.135C70.5233 204.832 70.1383 205.473 69.845 206.06C64.9683 204.19 61.045 201.403 58.075 197.7C55.105 193.997 52.795 189.523 51.145 184.28L57.03 182.905ZM68.305 185.6L72.43 190C71.3667 190.807 70.2117 191.613 68.965 192.42C67.755 193.227 66.5267 193.978 65.28 194.675C64.07 195.372 62.9517 195.995 61.925 196.545L58.35 192.42C59.34 191.87 60.44 191.21 61.65 190.44C62.86 189.67 64.0517 188.863 65.225 188.02C66.435 187.177 67.4617 186.37 68.305 185.6ZM24.58 159.365L28.155 154.525C29.2917 154.965 30.4833 155.497 31.73 156.12C33.0133 156.743 34.2233 157.385 35.36 158.045C36.5333 158.705 37.4683 159.365 38.165 160.025L34.37 165.415C33.71 164.755 32.83 164.058 31.73 163.325C30.63 162.592 29.4383 161.877 28.155 161.18C26.9083 160.483 25.7167 159.878 24.58 159.365ZM21.39 174.38L24.91 169.375C26.0833 169.778 27.3117 170.273 28.595 170.86C29.8783 171.447 31.1067 172.07 32.28 172.73C33.4533 173.39 34.4067 174.032 35.14 174.655L31.345 180.155C30.685 179.532 29.7867 178.872 28.65 178.175C27.5133 177.442 26.3033 176.745 25.02 176.085C23.7733 175.425 22.5633 174.857 21.39 174.38ZM22.985 201.055C23.9017 199.625 24.9283 197.957 26.065 196.05C27.2017 194.107 28.3567 192.053 29.53 189.89C30.7033 187.727 31.8033 185.563 32.83 183.4L37.835 187.525C36.9183 189.468 35.9467 191.467 34.92 193.52C33.93 195.573 32.9033 197.59 31.84 199.57C30.8133 201.513 29.7867 203.383 28.76 205.18L22.985 201.055ZM91.185 175.7V195.995H84.75V181.805H78.37V175.7H91.185ZM91.185 193.135C92.3217 194.932 93.9167 196.252 95.97 197.095C98.0233 197.938 100.48 198.415 103.34 198.525C104.953 198.598 106.86 198.653 109.06 198.69C111.297 198.69 113.643 198.672 116.1 198.635C118.557 198.598 120.958 198.525 123.305 198.415C125.688 198.305 127.797 198.177 129.63 198.03C129.41 198.543 129.153 199.203 128.86 200.01C128.567 200.817 128.292 201.642 128.035 202.485C127.815 203.328 127.65 204.08 127.54 204.74C125.89 204.85 124.002 204.923 121.875 204.96C119.748 205.033 117.567 205.07 115.33 205.07C113.093 205.107 110.93 205.107 108.84 205.07C106.75 205.033 104.88 204.978 103.23 204.905C99.8567 204.758 96.9783 204.227 94.595 203.31C92.2117 202.43 90.1033 200.927 88.27 198.8C87.06 199.827 85.8133 200.89 84.53 201.99C83.2833 203.09 81.9083 204.227 80.405 205.4L77.16 198.525C78.4433 197.755 79.7817 196.912 81.175 195.995C82.5683 195.078 83.9067 194.125 85.19 193.135H91.185ZM78.425 159.53L83.32 155.57C84.4567 156.303 85.6117 157.165 86.785 158.155C87.9583 159.108 89.0583 160.098 90.085 161.125C91.1117 162.115 91.9367 163.032 92.56 163.875L87.335 168.275C86.785 167.395 86.015 166.442 85.025 165.415C84.0717 164.388 83.0083 163.362 81.835 162.335C80.6617 161.272 79.525 160.337 78.425 159.53ZM101.415 172.62V177.35H119.785V172.62H101.415ZM95.365 167.56H126.165V182.355H95.365V167.56ZM93.605 159.035H128.035V164.535H93.605V159.035ZM107.245 154.305H113.625V197.095H107.245V154.305ZM105.485 180.705L110.27 182.41C109.243 184.28 107.997 186.095 106.53 187.855C105.063 189.578 103.45 191.173 101.69 192.64C99.93 194.07 98.1333 195.243 96.3 196.16C96.0067 195.647 95.6033 195.078 95.09 194.455C94.6133 193.832 94.1 193.227 93.55 192.64C93.0367 192.053 92.56 191.558 92.12 191.155C93.88 190.458 95.6033 189.56 97.29 188.46C98.9767 187.36 100.535 186.15 101.965 184.83C103.395 183.473 104.568 182.098 105.485 180.705ZM114.395 180.65C115.458 181.97 116.778 183.29 118.355 184.61C119.932 185.893 121.637 187.085 123.47 188.185C125.303 189.285 127.1 190.183 128.86 190.88C128.383 191.283 127.852 191.797 127.265 192.42C126.715 193.007 126.183 193.63 125.67 194.29C125.157 194.913 124.735 195.5 124.405 196.05C122.645 195.097 120.848 193.905 119.015 192.475C117.218 191.008 115.532 189.432 113.955 187.745C112.378 186.022 111.003 184.298 109.83 182.575L114.395 180.65ZM159.33 159.915C157.753 161.748 155.792 163.6 153.445 165.47C151.098 167.34 148.532 169.118 145.745 170.805C142.958 172.455 140.098 173.922 137.165 175.205C136.908 174.692 136.56 174.105 136.12 173.445C135.68 172.748 135.222 172.088 134.745 171.465C134.268 170.805 133.792 170.237 133.315 169.76C136.358 168.587 139.31 167.138 142.17 165.415C145.03 163.692 147.633 161.858 149.98 159.915C152.327 157.935 154.233 155.992 155.7 154.085H162.355C163.895 155.845 165.582 157.495 167.415 159.035C169.285 160.538 171.228 161.932 173.245 163.215C175.262 164.498 177.333 165.653 179.46 166.68C181.623 167.67 183.787 168.513 185.95 169.21C185.18 170.017 184.428 170.952 183.695 172.015C182.962 173.078 182.32 174.087 181.77 175.04C179.13 173.903 176.398 172.528 173.575 170.915C170.752 169.265 168.093 167.487 165.6 165.58C163.107 163.673 161.017 161.785 159.33 159.915ZM147.23 177.405H171.43V182.135H147.23V177.405ZM156.03 165.195H162.85V172.62H156.03V165.195ZM137.385 199.35C139.475 199.167 141.822 198.983 144.425 198.8C147.065 198.58 149.833 198.36 152.73 198.14C155.627 197.883 158.505 197.627 161.365 197.37L161.475 203.2C158.762 203.457 156.012 203.713 153.225 203.97C150.475 204.263 147.817 204.52 145.25 204.74C142.72 204.997 140.392 205.217 138.265 205.4L137.385 199.35ZM161.255 188.295C163.235 191.632 166.223 194.29 170.22 196.27C174.253 198.213 179.13 199.515 184.85 200.175C184.41 200.652 183.933 201.22 183.42 201.88C182.907 202.577 182.43 203.273 181.99 203.97C181.55 204.703 181.183 205.363 180.89 205.95C176.82 205.29 173.19 204.263 170 202.87C166.81 201.477 164.042 199.717 161.695 197.59C159.348 195.427 157.35 192.823 155.7 189.78L161.255 188.295ZM177.48 187.14L182.265 191.1C180.872 192.053 179.387 193.007 177.81 193.96C176.233 194.877 174.657 195.738 173.08 196.545C171.503 197.315 170.018 198.012 168.625 198.635L164.72 195.06C166.077 194.4 167.525 193.63 169.065 192.75C170.605 191.833 172.127 190.898 173.63 189.945C175.133 188.955 176.417 188.02 177.48 187.14ZM147.23 169.375H175.885V190.275H147.23V185.16H169.175V174.545H147.23V169.375ZM143.105 169.375H149.65V200.12L143.105 200.78V169.375ZM192.275 187.03H211.36V204.41H205.42V192.42H197.995V205.51H192.275V187.03ZM198.655 170.365H204.705V189.395H198.655V170.365ZM192.99 168.495H210.315V173.94H192.99V168.495ZM190.57 177.515H212.625V182.96H190.57V177.515ZM194.42 197.59H208.83V202.98H194.42V197.59ZM198.38 154.25H201.9V155.515H203.825V157.275C202.762 159.328 201.35 161.693 199.59 164.37C197.867 167.01 195.667 169.595 192.99 172.125C192.697 171.648 192.293 171.135 191.78 170.585C191.303 170.035 190.79 169.503 190.24 168.99C189.727 168.477 189.25 168.092 188.81 167.835C191.083 165.818 193.027 163.6 194.64 161.18C196.253 158.723 197.5 156.413 198.38 154.25ZM199.535 154.25H204.045C205.182 155.277 206.337 156.395 207.51 157.605C208.72 158.815 209.857 160.043 210.92 161.29C211.983 162.5 212.827 163.618 213.45 164.645L209.325 169.65C208.738 168.623 207.95 167.45 206.96 166.13C206.007 164.773 204.962 163.435 203.825 162.115C202.725 160.758 201.643 159.64 200.58 158.76H199.535V154.25ZM213.065 161.51H240.95V167.23H213.065V161.51ZM216.53 179.88H237.705V185.215H216.53V179.88ZM216.53 188.79H237.705V194.07H216.53V188.79ZM224.01 154.195H229.895V205.455H224.01V154.195ZM234.405 170.86H240.18V199.625C240.18 200.872 240.052 201.898 239.795 202.705C239.575 203.512 239.08 204.172 238.31 204.685C237.577 205.162 236.715 205.455 235.725 205.565C234.772 205.712 233.617 205.785 232.26 205.785C232.187 204.978 231.985 204.025 231.655 202.925C231.362 201.862 231.032 200.945 230.665 200.175C231.325 200.212 231.948 200.23 232.535 200.23C233.158 200.23 233.562 200.212 233.745 200.175C234.185 200.175 234.405 199.955 234.405 199.515V170.86ZM214.055 170.86H237.65V176.415H219.775V205.73H214.055V170.86ZM230.61 157.22L234.46 154.305C235.523 154.965 236.642 155.753 237.815 156.67C238.988 157.55 239.905 158.375 240.565 159.145L236.55 162.39C235.963 161.62 235.102 160.758 233.965 159.805C232.828 158.815 231.71 157.953 230.61 157.22Z" fill="black"/>
</g>
<defs>
<filter id="filter0_d_39_134" x="17.3901" y="154.085" width="227.56" height="59.9751" filterUnits="userSpaceOnUse" color-interpolation-filters="sRGB">
<feFlood flood-opacity="0" result="BackgroundImageFix"/>
<feColorMatrix in="SourceAlpha" type="matrix" values="0 0 0 0 0 0 0 0 0 0 0 0 0 0 0 0 0 0 127 0" result="hardAlpha"/>
<feOffset dy="4"/>
<feGaussianBlur stdDeviation="2"/>
<feComposite in2="hardAlpha" operator="out"/>
<feColorMatrix type="matrix" values="0 0 0 0 1 0 0 0 0 1 0 0 0 0 1 0 0 0 0.25 0"/>
<feBlend mode="normal" in2="BackgroundImageFix" result="effect1_dropShadow_39_134"/>
<feBlend mode="normal" in="SourceGraphic" in2="effect1_dropShadow_39_134" result="shape"/>
</filter>
</defs>
</svg>
