<svg width="263" height="350" viewBox="0 0 263 350" fill="none" xmlns="http://www.w3.org/2000/svg">
<rect width="263" height="350" rx="11" fill="#FAD480"/>
<rect y="136" width="263" height="82" fill="white"/>
<g filter="url(#filter0_d_39_144)">
<path d="M43.5088 193.685C43.5088 195.115 43.3071 196.398 42.9038 197.535C42.5371 198.672 41.9688 199.643 41.1988 200.45C40.4655 201.257 39.5488 201.88 38.4488 202.32C37.3488 202.76 36.0838 202.998 34.6538 203.035L33.1138 198.91C34.2505 198.91 35.2221 198.708 36.0288 198.305C36.8355 197.865 37.4588 197.223 37.8988 196.38C38.3388 195.5 38.5588 194.418 38.5588 193.135V167.34L35.0388 167.23V162.5H43.5088V193.685ZM64.5545 199.185C64.2245 199.552 63.7295 199.918 63.0695 200.285C62.4095 200.615 61.6578 200.89 60.8145 201.11C60.0078 201.33 59.2011 201.44 58.3945 201.44C57.4411 201.44 56.5061 201.33 55.5895 201.11C54.7095 200.927 53.8661 200.633 53.0595 200.23C52.2895 199.79 51.6111 199.222 51.0245 198.525C50.4745 197.792 50.0345 196.93 49.7045 195.94C49.4111 194.913 49.2645 193.703 49.2645 192.31V173.445H54.4345V191.98C54.4345 193.117 54.5995 194.033 54.9295 194.73C55.2961 195.427 55.8095 195.94 56.4695 196.27C57.1295 196.563 57.9361 196.71 58.8895 196.71C59.6595 196.71 60.3928 196.582 61.0895 196.325C61.7861 196.032 62.3911 195.647 62.9045 195.17C63.4178 194.693 63.8211 194.143 64.1145 193.52C64.4078 192.86 64.5545 192.145 64.5545 191.375V173.445H69.6145V201H64.5545V199.185ZM75.4015 201V173.445H80.5165V201H75.4015ZM77.9865 161.95C78.7565 161.95 79.4165 162.207 79.9665 162.72C80.5165 163.233 80.7915 163.893 80.7915 164.7C80.7915 165.47 80.5165 166.13 79.9665 166.68C79.4165 167.23 78.7565 167.505 77.9865 167.505C77.2165 167.505 76.5565 167.23 76.0065 166.68C75.4565 166.13 75.1815 165.47 75.1815 164.7C75.1815 163.893 75.4565 163.233 76.0065 162.72C76.5565 162.207 77.2165 161.95 77.9865 161.95ZM102.493 178.67C101.723 178.303 100.88 178.01 99.9629 177.79C99.0462 177.533 98.1479 177.387 97.2679 177.35C95.9845 177.277 94.8662 177.46 93.9129 177.9C92.9962 178.34 92.2995 179 91.8229 179.88C91.3462 180.76 91.0895 181.842 91.0529 183.125V191.155C91.0529 192.182 91.1812 193.08 91.4379 193.85C91.7312 194.62 92.1529 195.243 92.7029 195.72C93.2529 196.197 93.9129 196.563 94.6829 196.82C95.4895 197.04 96.3879 197.15 97.3779 197.15C98.0379 197.15 98.6979 197.132 99.3579 197.095C100.018 197.022 100.605 196.948 101.118 196.875C101.668 196.765 102.09 196.673 102.383 196.6C102.676 196.527 102.823 196.49 102.823 196.49L103.758 200.725C102.621 201.018 101.43 201.257 100.183 201.44C98.9729 201.623 97.7629 201.697 96.5529 201.66C94.4629 201.587 92.6112 201.202 90.9979 200.505C89.4212 199.772 88.1929 198.672 87.3129 197.205C86.4329 195.702 85.9929 193.777 85.9929 191.43V183.4C85.9929 181.31 86.3779 179.477 87.1479 177.9C87.9545 176.323 89.1279 175.077 90.6679 174.16C92.2445 173.243 94.1695 172.822 96.4429 172.895C97.6529 172.895 98.8629 173.06 100.073 173.39C101.32 173.72 102.511 174.142 103.648 174.655L102.493 178.67ZM131.891 176.47C131.047 176.69 130.442 177.112 130.076 177.735C129.709 178.358 129.526 179.183 129.526 180.21V204.3C129.526 205.987 129.251 207.417 128.701 208.59C128.151 209.8 127.307 210.735 126.171 211.395C125.071 212.092 123.714 212.513 122.101 212.66L120.726 208.645C121.312 208.535 121.826 208.333 122.266 208.04C122.742 207.783 123.146 207.435 123.476 206.995C123.806 206.555 124.044 206.06 124.191 205.51C124.374 204.997 124.466 204.447 124.466 203.86V199.075C124.136 199.478 123.622 199.863 122.926 200.23C122.266 200.56 121.532 200.835 120.726 201.055C119.919 201.275 119.094 201.385 118.251 201.385C117.004 201.385 115.831 201.238 114.731 200.945C113.667 200.615 112.696 200.102 111.816 199.405C110.972 198.672 110.312 197.737 109.836 196.6C109.396 195.427 109.176 193.978 109.176 192.255V173.39H114.291V192.09C114.291 192.86 114.419 193.538 114.676 194.125C114.969 194.712 115.336 195.207 115.776 195.61C116.216 195.977 116.729 196.252 117.316 196.435C117.939 196.618 118.581 196.71 119.241 196.71C119.974 196.71 120.652 196.563 121.276 196.27C121.936 195.977 122.504 195.592 122.981 195.115C123.457 194.638 123.824 194.07 124.081 193.41C124.337 192.75 124.466 192.053 124.466 191.32V179.11C124.466 178.12 124.649 177.167 125.016 176.25C125.419 175.333 126.042 174.563 126.886 173.94C127.766 173.317 128.884 172.95 130.241 172.84L131.891 176.47ZM164.934 162.5C167.061 162.5 168.894 162.867 170.434 163.6C171.974 164.333 173.166 165.415 174.009 166.845C174.853 168.275 175.274 170.035 175.274 172.125C175.274 173.225 175.128 174.252 174.834 175.205C174.578 176.158 174.174 177.02 173.624 177.79C173.074 178.56 172.396 179.22 171.589 179.77C172.653 180.247 173.624 180.943 174.504 181.86C175.384 182.74 176.063 183.822 176.539 185.105C177.053 186.388 177.309 187.892 177.309 189.615C177.309 191.925 176.851 193.942 175.934 195.665C175.054 197.352 173.753 198.672 172.029 199.625C170.343 200.542 168.234 201 165.704 201H153.384V162.5H164.934ZM163.229 178.285C164.696 178.285 165.888 178.102 166.804 177.735C167.721 177.332 168.399 176.708 168.839 175.865C169.279 175.022 169.499 173.958 169.499 172.675C169.499 171.465 169.279 170.475 168.839 169.705C168.399 168.935 167.721 168.385 166.804 168.055C165.924 167.688 164.824 167.505 163.504 167.505H158.499V178.285H163.229ZM164.604 196.27C165.778 196.27 166.896 196.068 167.959 195.665C169.023 195.225 169.884 194.51 170.544 193.52C171.204 192.53 171.534 191.173 171.534 189.45C171.534 188.167 171.278 187.048 170.764 186.095C170.251 185.142 169.463 184.427 168.399 183.95C167.373 183.437 166.071 183.18 164.494 183.18H158.499V196.27H164.604ZM198.073 199.185C197.743 199.552 197.248 199.918 196.588 200.285C195.928 200.615 195.177 200.89 194.333 201.11C193.527 201.33 192.72 201.44 191.913 201.44C190.96 201.44 190.025 201.33 189.108 201.11C188.228 200.927 187.385 200.633 186.578 200.23C185.808 199.79 185.13 199.222 184.543 198.525C183.993 197.792 183.553 196.93 183.223 195.94C182.93 194.913 182.783 193.703 182.783 192.31V173.445H187.953V191.98C187.953 193.117 188.118 194.033 188.448 194.73C188.815 195.427 189.328 195.94 189.988 196.27C190.648 196.563 191.455 196.71 192.408 196.71C193.178 196.71 193.912 196.582 194.608 196.325C195.305 196.032 195.91 195.647 196.423 195.17C196.937 194.693 197.34 194.143 197.633 193.52C197.927 192.86 198.073 192.145 198.073 191.375V173.445H203.133V201H198.073V199.185ZM224.314 182.135C224.314 181.402 224.186 180.742 223.929 180.155C223.672 179.568 223.306 179.092 222.829 178.725C222.389 178.322 221.857 178.028 221.234 177.845C220.647 177.625 220.024 177.515 219.364 177.515C218.814 177.515 218.246 177.57 217.659 177.68C217.109 177.79 216.541 177.955 215.954 178.175C215.367 178.395 214.744 178.688 214.084 179.055V201.055H209.024V173.445H214.084V174.93C214.524 174.637 215.074 174.343 215.734 174.05C216.394 173.757 217.109 173.5 217.879 173.28C218.649 173.06 219.456 172.95 220.299 172.95C221.289 172.95 222.224 173.06 223.104 173.28C224.021 173.463 224.846 173.775 225.579 174.215C226.349 174.655 227.009 175.223 227.559 175.92C228.109 176.617 228.531 177.478 228.824 178.505C229.154 179.495 229.319 180.65 229.319 181.97V201.055H224.314V182.135Z" fill="black"/>
</g>
<defs>
<filter id="filter0_d_39_144" x="29.1138" y="161.95" width="204.205" height="58.71" filterUnits="userSpaceOnUse" color-interpolation-filters="sRGB">
<feFlood flood-opacity="0" result="BackgroundImageFix"/>
<feColorMatrix in="SourceAlpha" type="matrix" values="0 0 0 0 0 0 0 0 0 0 0 0 0 0 0 0 0 0 127 0" result="hardAlpha"/>
<feOffset dy="4"/>
<feGaussianBlur stdDeviation="2"/>
<feComposite in2="hardAlpha" operator="out"/>
<feColorMatrix type="matrix" values="0 0 0 0 1 0 0 0 0 1 0 0 0 0 1 0 0 0 0.25 0"/>
<feBlend mode="normal" in2="BackgroundImageFix" result="effect1_dropShadow_39_144"/>
<feBlend mode="normal" in="SourceGraphic" in2="effect1_dropShadow_39_144" result="shape"/>
</filter>
</defs>
</svg>
