<svg width="263" height="350" viewBox="0 0 263 350" fill="none" xmlns="http://www.w3.org/2000/svg">
<rect width="263" height="350" rx="11" fill="white"/>
<g filter="url(#filter0_d_39_144)">
<path d="M41.8685 192.585C41.8685 194.162 41.6301 195.592 41.1535 196.875C40.6768 198.122 39.9618 199.203 39.0085 200.12C38.0918 201.037 36.9368 201.733 35.5435 202.21C34.1501 202.723 32.5368 202.998 30.7035 203.035L28.7235 196.435C30.0435 196.435 31.0701 196.233 31.8035 195.83C32.5735 195.39 33.1235 194.767 33.4535 193.96C33.7835 193.153 33.9485 192.145 33.9485 190.935V169.595L30.3735 169.485V162.5H41.8685V192.585ZM60.4963 199.735C60.313 199.992 59.9646 200.248 59.4513 200.505C58.938 200.762 58.333 200.963 57.6363 201.11C56.9763 201.293 56.298 201.385 55.6013 201.385C54.8313 201.385 54.0613 201.293 53.2913 201.11C52.5213 200.927 51.788 200.633 51.0913 200.23C50.4313 199.827 49.8446 199.277 49.3313 198.58C48.818 197.883 48.4146 197.022 48.1213 195.995C47.828 194.968 47.6813 193.74 47.6813 192.31V173.445H55.7113V191.485C55.7113 192.035 55.7846 192.475 55.9313 192.805C56.1146 193.135 56.353 193.392 56.6463 193.575C56.9396 193.722 57.288 193.795 57.6913 193.795C58.058 193.795 58.4063 193.722 58.7363 193.575C59.103 193.428 59.4146 193.227 59.6713 192.97C59.928 192.713 60.1296 192.42 60.2763 192.09C60.423 191.723 60.4963 191.338 60.4963 190.935V173.445H68.5263V201H60.4963V199.735ZM74.303 201V173.445H82.333V201H74.303ZM78.318 161.125C79.4913 161.125 80.463 161.492 81.233 162.225C82.0397 162.958 82.443 163.93 82.443 165.14C82.443 166.277 82.0397 167.248 81.233 168.055C80.463 168.862 79.4913 169.265 78.318 169.265C77.1447 169.265 76.1547 168.862 75.348 168.055C74.578 167.248 74.193 166.277 74.193 165.14C74.193 163.93 74.578 162.958 75.348 162.225C76.1547 161.492 77.1447 161.125 78.318 161.125ZM103.792 181.42C103.315 181.163 102.784 180.962 102.197 180.815C101.647 180.632 101.079 180.522 100.492 180.485C99.722 180.412 99.007 180.503 98.347 180.76C97.7237 180.98 97.2287 181.347 96.862 181.86C96.4954 182.373 96.312 183.052 96.312 183.895V190.275C96.312 190.898 96.4037 191.448 96.587 191.925C96.807 192.402 97.1004 192.787 97.467 193.08C97.8704 193.373 98.3287 193.593 98.842 193.74C99.3554 193.887 99.9237 193.96 100.547 193.96C100.987 193.96 101.427 193.942 101.867 193.905C102.307 193.868 102.692 193.832 103.022 193.795C103.389 193.722 103.682 193.667 103.902 193.63C104.122 193.557 104.232 193.52 104.232 193.52L105.827 200.725C104.69 201.018 103.517 201.257 102.307 201.44C101.097 201.623 99.8687 201.697 98.622 201.66C96.532 201.587 94.6804 201.202 93.067 200.505C91.4904 199.772 90.262 198.672 89.382 197.205C88.502 195.702 88.062 193.777 88.062 191.43V183.4C88.062 181.31 88.4654 179.477 89.272 177.9C90.0787 176.287 91.252 175.022 92.792 174.105C94.3687 173.188 96.2937 172.767 98.567 172.84C99.777 172.877 100.987 173.06 102.197 173.39C103.407 173.72 104.58 174.142 105.717 174.655L103.792 181.42ZM134.784 178.285C133.684 178.505 132.95 178.982 132.584 179.715C132.254 180.412 132.089 181.237 132.089 182.19V204.245C132.089 206.005 131.722 207.508 130.989 208.755C130.292 210.038 129.265 211.028 127.909 211.725C126.589 212.422 125.03 212.77 123.234 212.77L120.869 206.115C121.345 206.115 121.767 206.023 122.134 205.84C122.537 205.657 122.885 205.4 123.179 205.07C123.472 204.777 123.692 204.428 123.839 204.025C123.985 203.658 124.059 203.255 124.059 202.815V200.01C123.765 200.193 123.362 200.395 122.849 200.615C122.372 200.835 121.804 201 121.144 201.11C120.484 201.257 119.75 201.33 118.944 201.33C117.99 201.33 117.055 201.183 116.139 200.89C115.259 200.597 114.434 200.12 113.664 199.46C112.93 198.763 112.344 197.828 111.904 196.655C111.464 195.482 111.244 194.015 111.244 192.255V173.335H119.274V191.43C119.274 191.76 119.329 192.09 119.439 192.42C119.549 192.713 119.695 192.97 119.879 193.19C120.062 193.373 120.3 193.538 120.594 193.685C120.887 193.795 121.199 193.85 121.529 193.85C121.859 193.85 122.17 193.777 122.464 193.63C122.794 193.447 123.069 193.227 123.289 192.97C123.545 192.713 123.729 192.42 123.839 192.09C123.985 191.723 124.059 191.338 124.059 190.935V180.925C124.059 179.202 124.389 177.735 125.049 176.525C125.745 175.315 126.717 174.398 127.964 173.775C129.21 173.152 130.695 172.84 132.419 172.84L134.784 178.285ZM167.754 162.5C169.881 162.5 171.732 162.885 173.309 163.655C174.922 164.425 176.169 165.543 177.049 167.01C177.929 168.44 178.369 170.182 178.369 172.235C178.369 173.482 178.222 174.582 177.929 175.535C177.636 176.488 177.196 177.332 176.609 178.065C176.022 178.798 175.289 179.44 174.409 179.99C175.509 180.467 176.481 181.145 177.324 182.025C178.204 182.905 178.882 183.987 179.359 185.27C179.872 186.517 180.129 187.983 180.129 189.67C180.129 191.943 179.671 193.942 178.754 195.665C177.837 197.352 176.499 198.672 174.739 199.625C173.016 200.542 170.871 201 168.304 201H156.204V162.5H167.754ZM165.994 177.79C166.984 177.79 167.772 177.643 168.359 177.35C168.946 177.057 169.367 176.598 169.624 175.975C169.917 175.315 170.064 174.49 170.064 173.5C170.064 172.51 169.917 171.722 169.624 171.135C169.367 170.548 168.964 170.108 168.414 169.815C167.901 169.522 167.222 169.375 166.379 169.375H164.234V177.79H165.994ZM167.094 194.345C167.681 194.345 168.286 194.217 168.909 193.96C169.569 193.667 170.119 193.172 170.559 192.475C171.036 191.742 171.274 190.715 171.274 189.395C171.274 188.222 171.091 187.287 170.724 186.59C170.357 185.893 169.844 185.38 169.184 185.05C168.524 184.72 167.717 184.555 166.764 184.555H164.234V194.345H167.094ZM198.527 199.735C198.344 199.992 197.995 200.248 197.482 200.505C196.969 200.762 196.364 200.963 195.667 201.11C195.007 201.293 194.329 201.385 193.632 201.385C192.862 201.385 192.092 201.293 191.322 201.11C190.552 200.927 189.819 200.633 189.122 200.23C188.462 199.827 187.875 199.277 187.362 198.58C186.849 197.883 186.445 197.022 186.152 195.995C185.859 194.968 185.712 193.74 185.712 192.31V173.445H193.742V191.485C193.742 192.035 193.815 192.475 193.962 192.805C194.145 193.135 194.384 193.392 194.677 193.575C194.97 193.722 195.319 193.795 195.722 193.795C196.089 193.795 196.437 193.722 196.767 193.575C197.134 193.428 197.445 193.227 197.702 192.97C197.959 192.713 198.16 192.42 198.307 192.09C198.454 191.723 198.527 191.338 198.527 190.935V173.445H206.557V201H198.527V199.735ZM225.197 182.795C225.197 182.465 225.142 182.172 225.032 181.915C224.922 181.658 224.757 181.438 224.537 181.255C224.354 181.035 224.116 180.87 223.822 180.76C223.529 180.65 223.217 180.595 222.887 180.595C222.667 180.595 222.411 180.613 222.117 180.65C221.861 180.687 221.586 180.778 221.292 180.925C220.999 181.035 220.669 181.182 220.302 181.365V201.055H212.327V173.445H220.302V174.49C220.559 174.307 220.926 174.105 221.402 173.885C221.916 173.628 222.521 173.408 223.217 173.225C223.914 173.042 224.684 172.95 225.527 172.95C226.261 172.95 226.994 173.042 227.727 173.225C228.461 173.408 229.139 173.702 229.762 174.105C230.422 174.508 231.009 175.058 231.522 175.755C232.036 176.415 232.439 177.258 232.732 178.285C233.026 179.312 233.172 180.54 233.172 181.97V201.055H225.197V182.795Z" fill="#FDB310"/>
</g>
<defs>
<filter id="filter0_d_39_144" x="24.7236" y="161.125" width="212.449" height="59.645" filterUnits="userSpaceOnUse" color-interpolation-filters="sRGB">
<feFlood flood-opacity="0" result="BackgroundImageFix"/>
<feColorMatrix in="SourceAlpha" type="matrix" values="0 0 0 0 0 0 0 0 0 0 0 0 0 0 0 0 0 0 127 0" result="hardAlpha"/>
<feOffset dy="4"/>
<feGaussianBlur stdDeviation="2"/>
<feComposite in2="hardAlpha" operator="out"/>
<feColorMatrix type="matrix" values="0 0 0 0 1 0 0 0 0 1 0 0 0 0 1 0 0 0 0.25 0"/>
<feBlend mode="normal" in2="BackgroundImageFix" result="effect1_dropShadow_39_144"/>
<feBlend mode="normal" in="SourceGraphic" in2="effect1_dropShadow_39_144" result="shape"/>
</filter>
</defs>
</svg>
