<svg width="263" height="350" viewBox="0 0 263 350" fill="none" xmlns="http://www.w3.org/2000/svg">
<rect width="263" height="350" rx="11" fill="#99AFBD"/>
<rect y="136" width="263" height="82" fill="white"/>
<g filter="url(#filter0_d_39_141)">
<path d="M71.99 155.02H79.195V197.645C79.195 199.698 78.9383 201.238 78.425 202.265C77.9117 203.292 77.0317 204.08 75.785 204.63C74.5017 205.143 72.8883 205.473 70.945 205.62C69.0383 205.803 66.7467 205.877 64.07 205.84C63.96 205.217 63.7583 204.483 63.465 203.64C63.1717 202.833 62.8417 202.008 62.475 201.165C62.145 200.322 61.7967 199.607 61.43 199.02C62.64 199.057 63.85 199.093 65.06 199.13C66.27 199.167 67.3517 199.185 68.305 199.185C69.2583 199.148 69.9367 199.13 70.34 199.13C70.9267 199.13 71.3483 199.02 71.605 198.8C71.8617 198.58 71.99 198.195 71.99 197.645V155.02ZM85.19 169.485L91.68 167.065C93.1833 169.668 94.6317 172.455 96.025 175.425C97.455 178.358 98.7017 181.255 99.765 184.115C100.865 186.938 101.653 189.505 102.13 191.815L94.87 194.675C94.5033 192.438 93.825 189.89 92.835 187.03C91.8817 184.133 90.7267 181.163 89.37 178.12C88.05 175.04 86.6567 172.162 85.19 169.485ZM57.58 167.67L65.06 168.935C64.4367 171.648 63.685 174.545 62.805 177.625C61.925 180.668 60.88 183.583 59.67 186.37C58.4967 189.12 57.14 191.522 55.6 193.575C55.05 193.172 54.3717 192.75 53.565 192.31C52.795 191.87 52.0067 191.467 51.2 191.1C50.43 190.697 49.7333 190.367 49.11 190.11C50.6133 188.24 51.915 186.022 53.015 183.455C54.1517 180.852 55.105 178.175 55.875 175.425C56.645 172.638 57.2133 170.053 57.58 167.67ZM128.035 154.25H134.8V173.06H128.035V154.25ZM109.61 158.1L115.495 155.625C116.412 156.688 117.31 157.862 118.19 159.145C119.07 160.428 119.858 161.712 120.555 162.995C121.288 164.242 121.875 165.378 122.315 166.405L116.1 169.32C115.733 168.293 115.202 167.12 114.505 165.8C113.845 164.48 113.075 163.16 112.195 161.84C111.352 160.483 110.49 159.237 109.61 158.1ZM146.9 155.13L153.555 157.495C152.712 158.888 151.832 160.318 150.915 161.785C149.998 163.215 149.1 164.572 148.22 165.855C147.34 167.102 146.497 168.238 145.69 169.265L140.135 167.01C140.905 165.947 141.712 164.737 142.555 163.38C143.398 162.023 144.205 160.63 144.975 159.2C145.745 157.733 146.387 156.377 146.9 155.13ZM121.325 179.935H127.32V200.065H121.325V179.935ZM124.955 179.935H141.785V196.6H124.955V191.1H135.68V185.435H124.955V179.935ZM110.05 169.98H150.805V176.085H116.595V205.95H110.05V169.98ZM146.68 169.98H153.17V198.69C153.17 200.267 152.987 201.513 152.62 202.43C152.253 203.383 151.52 204.117 150.42 204.63C149.393 205.107 148.128 205.418 146.625 205.565C145.122 205.712 143.325 205.785 141.235 205.785C141.125 204.868 140.85 203.787 140.41 202.54C140.007 201.33 139.585 200.322 139.145 199.515C140.465 199.552 141.748 199.588 142.995 199.625C144.278 199.625 145.14 199.607 145.58 199.57C146.02 199.57 146.313 199.497 146.46 199.35C146.607 199.203 146.68 198.947 146.68 198.58V169.98ZM177.92 162.775V170.145H197.28V162.775H177.92ZM171.54 156.45H203.99V176.415H171.54V156.45ZM163.95 181.035H185.015V205.62H178.415V187.36H170.22V205.95H163.95V181.035ZM189.635 181.035H211.415V205.675H204.815V187.36H195.96V205.95H189.635V181.035ZM166.7 196.82H181.165V203.145H166.7V196.82ZM192.66 196.82H208.06V203.145H192.66V196.82Z" fill="black"/>
</g>
<defs>
<filter id="filter0_d_39_141" x="45.1099" y="154.25" width="170.305" height="59.7" filterUnits="userSpaceOnUse" color-interpolation-filters="sRGB">
<feFlood flood-opacity="0" result="BackgroundImageFix"/>
<feColorMatrix in="SourceAlpha" type="matrix" values="0 0 0 0 0 0 0 0 0 0 0 0 0 0 0 0 0 0 127 0" result="hardAlpha"/>
<feOffset dy="4"/>
<feGaussianBlur stdDeviation="2"/>
<feComposite in2="hardAlpha" operator="out"/>
<feColorMatrix type="matrix" values="0 0 0 0 1 0 0 0 0 1 0 0 0 0 1 0 0 0 0.25 0"/>
<feBlend mode="normal" in2="BackgroundImageFix" result="effect1_dropShadow_39_141"/>
<feBlend mode="normal" in="SourceGraphic" in2="effect1_dropShadow_39_141" result="shape"/>
</filter>
</defs>
</svg>
