<svg width="263" height="350" viewBox="0 0 263 350" fill="none" xmlns="http://www.w3.org/2000/svg">
<rect width="263" height="350" rx="11" fill="white"/>
<g filter="url(#filter0_d_39_142)">
<path d="M59.884 185.368H77.98V203.08H72.748V190.216H64.876V203.176H59.884V185.368ZM61.66 196.456H75.628V201.304H61.66V196.456ZM63.916 158.152L69.244 158.968C68.636 161.016 67.868 163.08 66.94 165.16C66.044 167.208 64.972 169.208 63.724 171.16C62.476 173.112 60.988 174.968 59.26 176.728C58.972 176.312 58.604 175.88 58.156 175.432C57.708 174.984 57.244 174.552 56.764 174.136C56.284 173.688 55.836 173.352 55.42 173.128C56.924 171.688 58.236 170.12 59.356 168.424C60.476 166.728 61.404 165 62.14 163.24C62.908 161.48 63.5 159.784 63.916 158.152ZM64.3 162.76H75.004V167.56H61.9L64.3 162.76ZM73.228 162.76H74.284L75.196 162.52L78.508 164.152C77.42 167.96 75.9 171.4 73.948 174.472C72.028 177.512 69.82 180.152 67.324 182.392C64.86 184.6 62.22 186.392 59.404 187.768C59.212 187.352 58.908 186.872 58.492 186.328C58.076 185.752 57.628 185.208 57.148 184.696C56.7 184.152 56.3 183.736 55.948 183.448C58.604 182.296 61.084 180.776 63.388 178.888C65.724 176.968 67.74 174.744 69.436 172.216C71.132 169.656 72.396 166.824 73.228 163.72V162.76ZM64.828 167.272C65.82 169.576 67.116 171.736 68.716 173.752C70.348 175.768 72.236 177.56 74.38 179.128C76.524 180.664 78.86 181.896 81.388 182.824C80.812 183.304 80.188 183.992 79.516 184.888C78.844 185.752 78.3 186.536 77.884 187.24C75.228 186.12 72.812 184.648 70.636 182.824C68.46 180.968 66.524 178.84 64.828 176.44C63.132 174.008 61.708 171.384 60.556 168.568L64.828 167.272ZM36.796 169.768H56.668V202.552H52.156V174.52H41.116V203.224H36.796V169.768ZM38.764 188.296H54.508V192.664H38.764V188.296ZM38.764 195.592H54.508V200.056H38.764V195.592ZM36.268 160.312H56.908V165.112H36.268V160.312ZM41.932 161.656H45.724V173.32H41.932V161.656ZM47.5 161.656H51.34V173.32H47.5V161.656ZM42.988 173.272H45.772V177.928C45.772 178.792 45.692 179.736 45.532 180.76C45.404 181.784 45.148 182.792 44.764 183.784C44.38 184.744 43.788 185.608 42.988 186.376C42.764 186.088 42.412 185.752 41.932 185.368C41.484 184.984 41.1 184.696 40.78 184.504C41.452 183.832 41.932 183.128 42.22 182.392C42.54 181.624 42.748 180.856 42.844 180.088C42.94 179.288 42.988 178.536 42.988 177.832V173.272ZM47.452 173.272H50.236V180.52C50.236 180.84 50.252 181.048 50.284 181.144C50.348 181.208 50.476 181.24 50.668 181.24C50.732 181.24 50.812 181.24 50.908 181.24C51.004 181.24 51.1 181.24 51.196 181.24C51.324 181.24 51.42 181.24 51.484 181.24C51.772 181.24 51.948 181.224 52.012 181.192C52.108 181.16 52.172 181.112 52.204 181.048C52.46 181.304 52.828 181.528 53.308 181.72C53.788 181.912 54.252 182.072 54.7 182.2C54.54 182.904 54.236 183.416 53.788 183.736C53.34 184.024 52.732 184.168 51.964 184.168C51.836 184.168 51.66 184.168 51.436 184.168C51.244 184.168 51.036 184.168 50.812 184.168C50.62 184.168 50.444 184.168 50.284 184.168C49.164 184.168 48.412 183.928 48.028 183.448C47.644 182.968 47.452 182.024 47.452 180.616V173.272ZM94.876 169.864V171.784H120.076V169.864H94.876ZM94.876 164.68V166.552H120.076V164.68H94.876ZM89.596 161.128H125.596V175.288H89.596V161.128ZM99.388 158.2H105.004V174.376H99.388V158.2ZM109.612 158.2H115.324V174.376H109.612V158.2ZM92.092 176.776H127.468V180.856H92.092V176.776ZM89.26 176.776H94.732V183.064C94.732 184.568 94.668 186.2 94.54 187.96C94.412 189.72 94.156 191.512 93.772 193.336C93.388 195.16 92.844 196.936 92.14 198.664C91.468 200.36 90.572 201.912 89.452 203.32C89.1 203.032 88.62 202.696 88.012 202.312C87.436 201.96 86.828 201.608 86.188 201.256C85.58 200.904 85.052 200.632 84.604 200.44C86.012 198.712 87.052 196.824 87.724 194.776C88.396 192.696 88.812 190.632 88.972 188.584C89.164 186.536 89.26 184.68 89.26 183.016V176.776ZM97.18 182.344H123.772V185.896H97.18V182.344ZM91.612 187.576H128.764V191.608H91.612V187.576ZM97.324 188.68H102.94V199.576L97.324 199.96V188.68ZM93.436 197.8C95.676 197.64 98.348 197.4 101.452 197.08C104.556 196.76 107.692 196.424 110.86 196.072L110.956 200.632C108.012 200.984 105.052 201.32 102.076 201.64C99.1 201.96 96.428 202.264 94.06 202.552L93.436 197.8ZM123.484 190.408L127.468 193.816C126.348 194.296 125.212 194.76 124.06 195.208C122.908 195.624 121.788 196.024 120.7 196.408C119.612 196.76 118.588 197.064 117.628 197.32L114.94 194.632C115.836 194.312 116.796 193.912 117.82 193.432C118.876 192.92 119.9 192.408 120.892 191.896C121.916 191.352 122.78 190.856 123.484 190.408ZM110.428 188.776C111.388 190.696 112.732 192.328 114.46 193.672C116.22 195.016 118.38 196.088 120.94 196.888C123.5 197.656 126.444 198.184 129.772 198.472C129.42 198.856 129.036 199.336 128.62 199.912C128.204 200.488 127.82 201.064 127.468 201.64C127.116 202.248 126.812 202.808 126.556 203.32C122.876 202.84 119.692 202.04 117.004 200.92C114.316 199.8 112.044 198.328 110.188 196.504C108.332 194.648 106.796 192.408 105.58 189.784L110.428 188.776ZM151.804 161.896H173.788V167.32H151.804V161.896ZM171.676 161.896H177.58C177.58 161.896 177.58 162.088 177.58 162.472C177.58 162.856 177.58 163.288 177.58 163.768C177.58 164.216 177.564 164.568 177.532 164.824C177.436 170.872 177.324 175.992 177.196 180.184C177.068 184.376 176.892 187.816 176.668 190.504C176.476 193.192 176.22 195.288 175.9 196.792C175.612 198.264 175.244 199.32 174.796 199.96C174.156 200.92 173.5 201.608 172.828 202.024C172.156 202.44 171.372 202.728 170.476 202.888C169.612 203.08 168.556 203.176 167.308 203.176C166.092 203.176 164.828 203.16 163.516 203.128C163.484 202.296 163.292 201.304 162.94 200.152C162.588 199 162.156 198.008 161.644 197.176C162.924 197.272 164.092 197.336 165.148 197.368C166.204 197.368 167.004 197.368 167.548 197.368C168.348 197.368 168.972 197.064 169.42 196.456C169.772 196.008 170.06 195.096 170.284 193.72C170.54 192.312 170.748 190.312 170.908 187.72C171.1 185.128 171.244 181.832 171.34 177.832C171.468 173.832 171.58 168.984 171.676 163.288V161.896ZM158.86 164.44H164.716C164.652 167.416 164.54 170.392 164.38 173.368C164.22 176.344 163.916 179.24 163.468 182.056C163.052 184.872 162.396 187.576 161.5 190.168C160.604 192.76 159.404 195.176 157.9 197.416C156.396 199.624 154.492 201.608 152.188 203.368C151.708 202.6 151.068 201.784 150.268 200.92C149.468 200.056 148.684 199.352 147.916 198.808C150.028 197.304 151.756 195.576 153.1 193.624C154.476 191.672 155.548 189.56 156.316 187.288C157.084 185.016 157.628 182.616 157.948 180.088C158.268 177.56 158.476 174.984 158.572 172.36C158.7 169.704 158.796 167.064 158.86 164.44ZM140.38 182.968L146.044 176.2V203.32H140.38V182.968ZM134.14 166.744H148.492V171.928H134.14V166.744ZM140.38 158.248H146.044V169.528H140.38V158.248ZM145.468 179.368C145.884 179.656 146.46 180.152 147.196 180.856C147.964 181.528 148.78 182.28 149.644 183.112C150.508 183.912 151.292 184.664 151.996 185.368C152.732 186.04 153.26 186.536 153.58 186.856L150.172 191.224C149.724 190.616 149.164 189.896 148.492 189.064C147.852 188.2 147.148 187.336 146.38 186.472C145.644 185.576 144.94 184.744 144.268 183.976C143.596 183.176 143.004 182.52 142.492 182.008L145.468 179.368ZM146.956 166.744H148.06L149.02 166.504L152.236 168.664C151.084 171.704 149.628 174.696 147.868 177.64C146.108 180.584 144.172 183.272 142.06 185.704C139.98 188.136 137.884 190.2 135.772 191.896C135.612 191.384 135.34 190.792 134.956 190.12C134.604 189.416 134.236 188.744 133.852 188.104C133.468 187.432 133.116 186.92 132.796 186.568C134.748 185.224 136.652 183.544 138.508 181.528C140.364 179.48 142.028 177.272 143.5 174.904C144.972 172.504 146.124 170.152 146.956 167.848V166.744ZM151.132 175.864L154.828 178.936C153.804 179.928 152.844 180.936 151.948 181.96C151.052 182.952 150.236 183.8 149.5 184.504L146.908 182.152C147.58 181.352 148.316 180.344 149.116 179.128C149.948 177.912 150.62 176.824 151.132 175.864ZM189.772 183.88H220.204V189.16H189.772V183.88ZM201.772 179.128H207.628V203.32H201.772V179.128ZM192.412 190.456L198.46 192.184C197.308 194.232 195.836 196.184 194.044 198.04C192.252 199.864 190.476 201.384 188.716 202.6C188.332 202.216 187.82 201.784 187.18 201.304C186.572 200.824 185.948 200.344 185.308 199.864C184.668 199.416 184.124 199.064 183.676 198.808C185.436 197.816 187.1 196.584 188.668 195.112C190.268 193.64 191.516 192.088 192.412 190.456ZM211.18 193.336L215.836 190.312C216.924 191.112 218.092 192.024 219.34 193.048C220.588 194.072 221.772 195.096 222.892 196.12C224.012 197.112 224.924 198.04 225.628 198.904L220.588 202.264C219.98 201.432 219.148 200.488 218.092 199.432C217.036 198.376 215.9 197.32 214.684 196.264C213.468 195.176 212.3 194.2 211.18 193.336ZM204.844 174.04C203.564 175.608 201.868 177.176 199.756 178.744C197.644 180.28 195.308 181.704 192.748 183.016C190.188 184.296 187.596 185.368 184.972 186.232C184.684 185.496 184.252 184.648 183.676 183.688C183.1 182.728 182.556 181.944 182.044 181.336C184.764 180.536 187.372 179.496 189.868 178.216C192.396 176.936 194.668 175.512 196.684 173.944C198.732 172.376 200.38 170.76 201.628 169.096H207.58C209.34 171.112 211.324 172.888 213.532 174.424C215.772 175.96 218.14 177.256 220.636 178.312C223.132 179.336 225.66 180.152 228.22 180.76C227.58 181.464 226.972 182.312 226.396 183.304C225.82 184.296 225.34 185.192 224.956 185.992C223.164 185.448 221.308 184.76 219.388 183.928C217.5 183.064 215.644 182.12 213.82 181.096C211.996 180.04 210.3 178.92 208.732 177.736C207.196 176.52 205.9 175.288 204.844 174.04ZM183.628 161.8H226.348V167.08H183.628V161.8ZM193.084 158.2H198.796V171.352H193.084V158.2ZM210.652 158.2H216.364V171.352H210.652V158.2Z" fill="#B8C0A3"/>
</g>
<defs>
<filter id="filter0_d_39_142" x="32.2681" y="158.152" width="199.952" height="53.2158" filterUnits="userSpaceOnUse" color-interpolation-filters="sRGB">
<feFlood flood-opacity="0" result="BackgroundImageFix"/>
<feColorMatrix in="SourceAlpha" type="matrix" values="0 0 0 0 0 0 0 0 0 0 0 0 0 0 0 0 0 0 127 0" result="hardAlpha"/>
<feOffset dy="4"/>
<feGaussianBlur stdDeviation="2"/>
<feComposite in2="hardAlpha" operator="out"/>
<feColorMatrix type="matrix" values="0 0 0 0 1 0 0 0 0 1 0 0 0 0 1 0 0 0 0.25 0"/>
<feBlend mode="normal" in2="BackgroundImageFix" result="effect1_dropShadow_39_142"/>
<feBlend mode="normal" in="SourceGraphic" in2="effect1_dropShadow_39_142" result="shape"/>
</filter>
</defs>
</svg>
