<svg width="263" height="350" viewBox="0 0 263 350" fill="none" xmlns="http://www.w3.org/2000/svg">
<rect width="263" height="350" rx="11" fill="#B8C0A3"/>
<rect y="136" width="263" height="82" fill="white"/>
<g filter="url(#filter0_d_39_142)">
<path d="M11.692 161.032H33.772V166.6H11.692V161.032ZM23.836 175H32.428V180.424H23.836V175ZM21.34 164.008H26.956V194.152H21.34V164.008ZM13.084 172.36H18.268V195.064H13.084V172.36ZM10.54 193.384C12.492 193.064 14.732 192.664 17.26 192.184C19.82 191.704 22.508 191.176 25.324 190.6C28.172 190.024 30.972 189.448 33.724 188.872L34.252 194.152C31.596 194.728 28.924 195.32 26.236 195.928C23.548 196.536 20.94 197.128 18.412 197.704C15.916 198.248 13.644 198.744 11.596 199.192L10.54 193.384ZM37.228 166.984H56.092V172.312H37.228V166.984ZM38.428 158.2L44.14 159.112C43.596 162.184 42.892 165.176 42.028 168.088C41.196 171 40.204 173.688 39.052 176.152C37.9 178.616 36.588 180.76 35.116 182.584C34.828 182.232 34.412 181.8 33.868 181.288C33.356 180.776 32.796 180.28 32.188 179.8C31.612 179.288 31.1 178.888 30.652 178.6C32.028 177.032 33.212 175.176 34.204 173.032C35.196 170.888 36.044 168.552 36.748 166.024C37.452 163.464 38.012 160.856 38.428 158.2ZM47.548 170.248L53.26 170.728C52.556 176.2 51.484 181.016 50.044 185.176C48.604 189.304 46.604 192.872 44.044 195.88C41.484 198.888 38.188 201.4 34.156 203.416C33.996 202.968 33.724 202.424 33.34 201.784C32.956 201.144 32.54 200.504 32.092 199.864C31.644 199.256 31.244 198.744 30.892 198.328C34.54 196.696 37.484 194.6 39.724 192.04C41.996 189.48 43.74 186.392 44.956 182.776C46.172 179.16 47.036 174.984 47.548 170.248ZM40.06 171.208C40.764 175.304 41.788 179.144 43.132 182.728C44.476 186.28 46.236 189.4 48.412 192.088C50.588 194.744 53.292 196.824 56.524 198.328C56.108 198.68 55.644 199.144 55.132 199.72C54.62 200.296 54.14 200.888 53.692 201.496C53.276 202.136 52.908 202.712 52.588 203.224C49.132 201.368 46.252 198.936 43.948 195.928C41.676 192.92 39.82 189.4 38.38 185.368C36.972 181.336 35.836 176.888 34.972 172.024L40.06 171.208ZM61.228 171.16H103.948V177.112H61.228V171.16ZM85.9 173.56C86.86 177.208 88.188 180.616 89.884 183.784C91.58 186.952 93.676 189.72 96.172 192.088C98.7 194.456 101.644 196.328 105.004 197.704C104.524 198.12 104.012 198.648 103.468 199.288C102.956 199.928 102.444 200.584 101.932 201.256C101.452 201.96 101.052 202.584 100.732 203.128C97.052 201.4 93.884 199.176 91.228 196.456C88.604 193.736 86.396 190.568 84.604 186.952C82.812 183.304 81.308 179.288 80.092 174.904L85.9 173.56ZM79.276 158.248H85.564C85.532 160.68 85.452 163.256 85.324 165.976C85.228 168.664 84.988 171.4 84.604 174.184C84.22 176.968 83.596 179.736 82.732 182.488C81.9 185.208 80.716 187.832 79.18 190.36C77.676 192.856 75.724 195.192 73.324 197.368C70.956 199.544 68.06 201.464 64.636 203.128C64.188 202.36 63.564 201.512 62.764 200.584C61.964 199.656 61.148 198.888 60.316 198.28C63.58 196.808 66.316 195.112 68.524 193.192C70.732 191.24 72.524 189.144 73.9 186.904C75.308 184.632 76.38 182.28 77.116 179.848C77.852 177.384 78.348 174.904 78.604 172.408C78.892 169.912 79.068 167.464 79.132 165.064C79.196 162.664 79.244 160.392 79.276 158.248ZM126.892 183.688L129.676 182.824C130.22 183.624 130.716 184.52 131.164 185.512C131.644 186.472 131.964 187.32 132.124 188.056L129.196 189.064C129.036 188.296 128.732 187.416 128.284 186.424C127.868 185.432 127.404 184.52 126.892 183.688ZM118.876 180.04L120.7 177.832C121.564 178.408 122.46 179.096 123.388 179.896C124.316 180.696 125.004 181.416 125.452 182.056L123.532 184.6C123.084 183.928 122.412 183.16 121.516 182.296C120.62 181.432 119.74 180.68 118.876 180.04ZM124.204 174.76L127.516 176.056C126.876 176.856 126.22 177.672 125.548 178.504C124.908 179.336 124.3 180.024 123.724 180.568L121.18 179.464C121.692 178.792 122.236 178.008 122.812 177.112C123.388 176.216 123.852 175.432 124.204 174.76ZM127.468 178.264L130.444 179.56C129.644 180.424 128.796 181.32 127.9 182.248C127.004 183.176 126.124 184.072 125.26 184.936C124.396 185.768 123.58 186.504 122.812 187.144L120.604 185.992C121.372 185.288 122.172 184.488 123.004 183.592C123.868 182.664 124.684 181.736 125.452 180.808C126.252 179.848 126.924 179 127.468 178.264ZM132.46 188.92H136.396V202.36H132.46V188.92ZM118.444 185.608C119.98 185.512 121.708 185.416 123.628 185.32C125.58 185.192 127.644 185.048 129.82 184.888V187.816C127.836 188.008 125.916 188.184 124.06 188.344C122.204 188.472 120.46 188.6 118.828 188.728L118.444 185.608ZM138.988 183.4L141.916 182.536C142.492 183.432 143.036 184.424 143.548 185.512C144.06 186.568 144.412 187.512 144.604 188.344L141.58 189.304C141.42 188.504 141.1 187.56 140.62 186.472C140.14 185.352 139.596 184.328 138.988 183.4ZM130.3 179.8L132.364 177.688C133.324 178.328 134.284 179.096 135.244 179.992C136.236 180.888 136.972 181.704 137.452 182.44L135.34 184.84C134.86 184.072 134.14 183.224 133.18 182.296C132.22 181.336 131.26 180.504 130.3 179.8ZM135.82 174.712L139.324 176.008C138.588 176.936 137.852 177.832 137.116 178.696C136.38 179.56 135.692 180.328 135.052 181L132.46 179.848C133.036 179.144 133.644 178.296 134.284 177.304C134.924 176.312 135.436 175.448 135.82 174.712ZM139.276 178.264L142.3 179.656C141.468 180.552 140.588 181.48 139.66 182.44C138.732 183.4 137.804 184.312 136.876 185.176C135.948 186.04 135.052 186.808 134.188 187.48L131.98 186.232C132.78 185.528 133.628 184.728 134.524 183.832C135.452 182.904 136.332 181.96 137.164 181C137.996 180.008 138.7 179.096 139.276 178.264ZM131.26 185.608C132.732 185.544 134.412 185.448 136.3 185.32C138.22 185.192 140.236 185.064 142.348 184.936V187.816C140.492 188.008 138.668 188.184 136.876 188.344C135.116 188.472 133.468 188.6 131.932 188.728L131.26 185.608ZM119.932 189.736H123.436V193.864H128.62V197.08H119.932V189.736ZM139.372 189.736H142.972V197.08H135.58V193.864H139.372V189.736ZM126.364 188.92H130.156V193.576C130.156 194.824 129.996 196.04 129.676 197.224C129.356 198.408 128.7 199.496 127.708 200.488C126.716 201.48 125.196 202.328 123.148 203.032C122.924 202.552 122.556 202.008 122.044 201.4C121.532 200.792 121.084 200.296 120.7 199.912C122.364 199.432 123.596 198.856 124.396 198.184C125.196 197.48 125.724 196.728 125.98 195.928C126.236 195.128 126.364 194.312 126.364 193.48V188.92ZM114.124 166.168H126.22V169.672H114.124V166.168ZM136.204 166.168H148.396V169.672H136.204V166.168ZM146.476 160.072H151.996V196.696C151.996 198.072 151.868 199.176 151.612 200.008C151.356 200.872 150.812 201.544 149.98 202.024C149.18 202.504 148.204 202.792 147.052 202.888C145.9 203.016 144.524 203.08 142.924 203.08C142.86 202.536 142.748 201.928 142.588 201.256C142.428 200.584 142.236 199.896 142.012 199.192C141.82 198.52 141.596 197.944 141.34 197.464C142.204 197.496 143.052 197.528 143.884 197.56C144.748 197.56 145.34 197.544 145.66 197.512C145.98 197.512 146.188 197.448 146.284 197.32C146.412 197.192 146.476 196.968 146.476 196.648V160.072ZM114.652 160.072H129.868V175.72H114.652V171.88H124.492V163.912H114.652V160.072ZM149.308 160.072V163.912H138.508V171.88H149.308V175.72H133.036V160.072H149.308ZM111.244 160.072H116.716V203.32H111.244V160.072ZM159.244 162.184H201.868V167.56H159.244V162.184ZM177.34 158.248H183.34V203.32H177.34V158.248ZM175.852 185.656L180.748 187.672C179.628 189.272 178.348 190.808 176.908 192.28C175.5 193.752 173.964 195.144 172.3 196.456C170.668 197.736 168.956 198.904 167.164 199.96C165.404 201.048 163.628 201.976 161.836 202.744C161.516 202.264 161.132 201.72 160.684 201.112C160.236 200.504 159.756 199.912 159.244 199.336C158.732 198.76 158.268 198.28 157.852 197.896C159.612 197.288 161.356 196.552 163.084 195.688C164.812 194.792 166.476 193.816 168.076 192.76C169.676 191.672 171.132 190.536 172.444 189.352C173.788 188.136 174.924 186.904 175.852 185.656ZM184.972 185.848C185.932 187.064 187.084 188.264 188.428 189.448C189.804 190.6 191.292 191.72 192.892 192.808C194.524 193.864 196.22 194.824 197.98 195.688C199.74 196.52 201.5 197.24 203.26 197.848C202.812 198.232 202.316 198.712 201.772 199.288C201.26 199.896 200.764 200.504 200.284 201.112C199.836 201.752 199.452 202.328 199.132 202.84C197.34 202.104 195.564 201.192 193.804 200.104C192.044 199.048 190.332 197.88 188.668 196.6C187.036 195.288 185.5 193.896 184.06 192.424C182.652 190.952 181.388 189.432 180.268 187.864L184.972 185.848ZM168.892 181.528V184.456H192.172V181.528H168.892ZM168.892 174.616V177.496H192.172V174.616H168.892ZM163.276 170.296H198.076V188.776H163.276V170.296ZM223.324 158.248H229.18V171.256H223.324V158.248ZM212.236 161.224H239.116V165.88H212.236V161.224ZM207.916 168.712H250.924V173.512H207.916V168.712ZM244.156 159.16L248.86 161.896C246.524 164.552 243.852 167 240.844 169.24C237.868 171.448 234.636 173.448 231.148 175.24C227.692 177 224.092 178.584 220.348 179.992C216.604 181.4 212.844 182.6 209.068 183.592C208.876 183.176 208.604 182.664 208.252 182.056C207.9 181.416 207.532 180.792 207.148 180.184C206.796 179.544 206.46 179.032 206.14 178.648C209.884 177.816 213.58 176.776 217.228 175.528C220.908 174.28 224.396 172.856 227.692 171.256C231.02 169.624 234.076 167.8 236.86 165.784C239.644 163.736 242.076 161.528 244.156 159.16ZM221.308 185.992V188.44H239.74V185.992H221.308ZM221.308 179.944V182.344H239.74V179.944H221.308ZM215.74 176.056H245.548V192.328H215.74V176.056ZM220.924 194.632L226.3 194.104C226.588 195.384 226.828 196.792 227.02 198.328C227.244 199.832 227.372 201.096 227.404 202.12L221.644 202.84C221.676 201.784 221.612 200.488 221.452 198.952C221.324 197.384 221.148 195.944 220.924 194.632ZM230.716 194.536L236.092 193.576C236.668 194.824 237.212 196.184 237.724 197.656C238.236 199.128 238.588 200.376 238.78 201.4L233.068 202.6C232.908 201.544 232.604 200.264 232.156 198.76C231.708 197.224 231.228 195.816 230.716 194.536ZM240.604 194.44L245.74 192.424C246.476 193.256 247.228 194.184 247.996 195.208C248.764 196.232 249.484 197.24 250.156 198.232C250.828 199.192 251.356 200.056 251.74 200.824L246.268 203.08C245.948 202.312 245.468 201.416 244.828 200.392C244.188 199.4 243.5 198.392 242.764 197.368C242.028 196.312 241.308 195.336 240.604 194.44ZM212.956 192.424L218.38 193.912C217.644 195.64 216.7 197.336 215.548 199C214.396 200.632 213.18 202.024 211.9 203.176L206.716 200.536C207.868 199.64 209.02 198.456 210.172 196.984C211.324 195.48 212.252 193.96 212.956 192.424Z" fill="black"/>
</g>
<defs>
<filter id="filter0_d_39_142" x="6.54004" y="158.2" width="249.2" height="53.2161" filterUnits="userSpaceOnUse" color-interpolation-filters="sRGB">
<feFlood flood-opacity="0" result="BackgroundImageFix"/>
<feColorMatrix in="SourceAlpha" type="matrix" values="0 0 0 0 0 0 0 0 0 0 0 0 0 0 0 0 0 0 127 0" result="hardAlpha"/>
<feOffset dy="4"/>
<feGaussianBlur stdDeviation="2"/>
<feComposite in2="hardAlpha" operator="out"/>
<feColorMatrix type="matrix" values="0 0 0 0 1 0 0 0 0 1 0 0 0 0 1 0 0 0 0.25 0"/>
<feBlend mode="normal" in2="BackgroundImageFix" result="effect1_dropShadow_39_142"/>
<feBlend mode="normal" in="SourceGraphic" in2="effect1_dropShadow_39_142" result="shape"/>
</filter>
</defs>
</svg>
