<svg width="263" height="350" viewBox="0 0 263 350" fill="none" xmlns="http://www.w3.org/2000/svg">
<rect width="263" height="350" rx="11" fill="#F0BEBE"/>
<rect y="136" width="263" height="82" fill="white"/>
<g filter="url(#filter0_d_39_143)">
<path d="M14.159 201V162.5H19.274V196.325H34.069V201H14.159ZM55.2062 182.3C55.2062 181.127 55.0412 180.173 54.7112 179.44C54.4179 178.707 53.9779 178.138 53.3912 177.735C52.8412 177.295 52.1445 176.983 51.3012 176.8C50.4579 176.617 49.5045 176.525 48.4412 176.525L48.8262 172.95C50.9529 172.95 52.7312 173.152 54.1612 173.555C55.6279 173.922 56.8012 174.563 57.6812 175.48C58.5979 176.36 59.2579 177.533 59.6612 179C60.0645 180.467 60.2662 182.282 60.2662 184.445V201C59.8629 201.037 59.3862 201.092 58.8362 201.165C58.2862 201.238 57.6812 201.293 57.0212 201.33C56.3612 201.403 55.6645 201.44 54.9312 201.44C54.2345 201.477 53.5195 201.513 52.7862 201.55C52.0895 201.587 51.4112 201.605 50.7512 201.605C49.1012 201.605 47.5612 201.458 46.1312 201.165C44.7379 200.908 43.5095 200.432 42.4462 199.735C41.3829 199.002 40.5395 198.03 39.9162 196.82C39.3295 195.573 39.0362 194.033 39.0362 192.2V187.085C39.0362 185.655 39.2379 184.427 39.6412 183.4C40.0812 182.337 40.6679 181.493 41.4012 180.87C42.1345 180.21 42.9595 179.715 43.8762 179.385C44.8295 179.055 45.8195 178.89 46.8462 178.89C47.8729 178.89 48.8995 179.037 49.9262 179.33C50.9529 179.587 51.9245 179.972 52.8412 180.485C53.7945 180.998 54.5829 181.603 55.2062 182.3ZM55.2062 186.15C54.7662 185.893 54.1429 185.6 53.3362 185.27C52.5295 184.903 51.6495 184.592 50.6962 184.335C49.7795 184.078 48.8445 183.95 47.8912 183.95C47.4512 183.95 47.0112 184.005 46.5712 184.115C46.1312 184.225 45.7279 184.408 45.3612 184.665C44.9945 184.922 44.7012 185.307 44.4812 185.82C44.2612 186.297 44.1512 186.902 44.1512 187.635V191.375C44.1512 192.292 44.2429 193.098 44.4262 193.795C44.6095 194.492 44.9395 195.078 45.4162 195.555C45.8929 196.032 46.5712 196.398 47.4512 196.655C48.3679 196.875 49.5595 196.985 51.0262 196.985C51.3929 196.948 51.7595 196.93 52.1262 196.93C52.5295 196.893 52.9145 196.857 53.2812 196.82C53.6479 196.783 53.9779 196.765 54.2712 196.765C54.5645 196.728 54.7845 196.71 54.9312 196.71C55.1145 196.673 55.2062 196.655 55.2062 196.655V186.15ZM85.2865 173.445V178.01L72.1415 196.16L86.0565 196.215V201H65.7615V196.215L78.9065 178.12L66.2565 178.065V173.445H85.2865ZM114.074 176.47C113.23 176.69 112.625 177.112 112.259 177.735C111.892 178.358 111.709 179.183 111.709 180.21V204.3C111.709 205.987 111.434 207.417 110.884 208.59C110.334 209.8 109.49 210.735 108.354 211.395C107.254 212.092 105.897 212.513 104.284 212.66L102.909 208.645C103.495 208.535 104.009 208.333 104.449 208.04C104.925 207.783 105.329 207.435 105.659 206.995C105.989 206.555 106.227 206.06 106.374 205.51C106.557 204.997 106.649 204.447 106.649 203.86V199.075C106.319 199.478 105.805 199.863 105.109 200.23C104.449 200.56 103.715 200.835 102.909 201.055C102.102 201.275 101.277 201.385 100.434 201.385C99.1871 201.385 98.0138 201.238 96.9138 200.945C95.8505 200.615 94.8788 200.102 93.9988 199.405C93.1555 198.672 92.4955 197.737 92.0188 196.6C91.5788 195.427 91.3588 193.978 91.3588 192.255V173.39H96.4738V192.09C96.4738 192.86 96.6021 193.538 96.8588 194.125C97.1521 194.712 97.5188 195.207 97.9588 195.61C98.3988 195.977 98.9121 196.252 99.4988 196.435C100.122 196.618 100.764 196.71 101.424 196.71C102.157 196.71 102.835 196.563 103.459 196.27C104.119 195.977 104.687 195.592 105.164 195.115C105.64 194.638 106.007 194.07 106.264 193.41C106.52 192.75 106.649 192.053 106.649 191.32V179.11C106.649 178.12 106.832 177.167 107.199 176.25C107.602 175.333 108.225 174.563 109.069 173.94C109.949 173.317 111.067 172.95 112.424 172.84L114.074 176.47ZM147.887 162.5C149.427 162.5 150.894 162.702 152.287 163.105C153.717 163.508 154.964 164.205 156.027 165.195C157.127 166.185 157.989 167.542 158.612 169.265C159.236 170.952 159.547 173.097 159.547 175.7C159.547 178.45 159.236 180.723 158.612 182.52C158.026 184.28 157.182 185.655 156.082 186.645C155.019 187.635 153.791 188.332 152.397 188.735C151.004 189.138 149.501 189.34 147.887 189.34H140.682V201H135.567V162.5H147.887ZM140.682 184.445H146.457C147.777 184.445 148.932 184.353 149.922 184.17C150.912 183.987 151.737 183.602 152.397 183.015C153.057 182.392 153.552 181.512 153.882 180.375C154.249 179.202 154.432 177.643 154.432 175.7C154.432 173.903 154.249 172.473 153.882 171.41C153.552 170.31 153.057 169.485 152.397 168.935C151.737 168.348 150.912 167.963 149.922 167.78C148.932 167.597 147.777 167.505 146.457 167.505H140.682V184.445ZM179.73 182.3C179.73 181.127 179.565 180.173 179.235 179.44C178.941 178.707 178.501 178.138 177.915 177.735C177.365 177.295 176.668 176.983 175.825 176.8C174.981 176.617 174.028 176.525 172.965 176.525L173.35 172.95C175.476 172.95 177.255 173.152 178.685 173.555C180.151 173.922 181.325 174.563 182.205 175.48C183.121 176.36 183.781 177.533 184.185 179C184.588 180.467 184.79 182.282 184.79 184.445V201C184.386 201.037 183.91 201.092 183.36 201.165C182.81 201.238 182.205 201.293 181.545 201.33C180.885 201.403 180.188 201.44 179.455 201.44C178.758 201.477 178.043 201.513 177.31 201.55C176.613 201.587 175.935 201.605 175.275 201.605C173.625 201.605 172.085 201.458 170.655 201.165C169.261 200.908 168.033 200.432 166.97 199.735C165.906 199.002 165.063 198.03 164.44 196.82C163.853 195.573 163.56 194.033 163.56 192.2V187.085C163.56 185.655 163.761 184.427 164.165 183.4C164.605 182.337 165.191 181.493 165.925 180.87C166.658 180.21 167.483 179.715 168.4 179.385C169.353 179.055 170.343 178.89 171.37 178.89C172.396 178.89 173.423 179.037 174.45 179.33C175.476 179.587 176.448 179.972 177.365 180.485C178.318 180.998 179.106 181.603 179.73 182.3ZM179.73 186.15C179.29 185.893 178.666 185.6 177.86 185.27C177.053 184.903 176.173 184.592 175.22 184.335C174.303 184.078 173.368 183.95 172.415 183.95C171.975 183.95 171.535 184.005 171.095 184.115C170.655 184.225 170.251 184.408 169.885 184.665C169.518 184.922 169.225 185.307 169.005 185.82C168.785 186.297 168.675 186.902 168.675 187.635V191.375C168.675 192.292 168.766 193.098 168.95 193.795C169.133 194.492 169.463 195.078 169.94 195.555C170.416 196.032 171.095 196.398 171.975 196.655C172.891 196.875 174.083 196.985 175.55 196.985C175.916 196.948 176.283 196.93 176.65 196.93C177.053 196.893 177.438 196.857 177.805 196.82C178.171 196.783 178.501 196.765 178.795 196.765C179.088 196.728 179.308 196.71 179.455 196.71C179.638 196.673 179.73 196.655 179.73 196.655V186.15ZM206.337 178.78C205.897 178.523 205.402 178.322 204.852 178.175C204.302 177.992 203.734 177.845 203.147 177.735C202.561 177.625 201.956 177.57 201.332 177.57C200.856 177.57 200.361 177.625 199.847 177.735C199.334 177.808 198.839 177.955 198.362 178.175C197.922 178.358 197.556 178.615 197.262 178.945C196.969 179.275 196.822 179.715 196.822 180.265C196.822 180.925 197.061 181.493 197.537 181.97C198.051 182.447 198.711 182.887 199.517 183.29C200.324 183.657 201.222 184.023 202.212 184.39C203.202 184.757 204.174 185.197 205.127 185.71C206.117 186.187 207.016 186.755 207.822 187.415C208.629 188.075 209.271 188.882 209.747 189.835C210.261 190.788 210.517 191.943 210.517 193.3C210.517 194.73 210.242 195.977 209.692 197.04C209.142 198.103 208.409 199.002 207.492 199.735C206.576 200.432 205.531 200.963 204.357 201.33C203.184 201.697 201.974 201.88 200.727 201.88C198.747 201.88 196.841 201.458 195.007 200.615C193.174 199.772 191.616 198.635 190.332 197.205L193.247 194.07C193.944 194.693 194.659 195.243 195.392 195.72C196.126 196.16 196.896 196.508 197.702 196.765C198.546 197.022 199.407 197.15 200.287 197.15C200.837 197.15 201.406 197.095 201.992 196.985C202.579 196.838 203.111 196.618 203.587 196.325C204.101 195.995 204.504 195.592 204.797 195.115C205.127 194.638 205.292 194.07 205.292 193.41C205.292 192.567 205.036 191.87 204.522 191.32C204.046 190.77 203.404 190.275 202.597 189.835C201.791 189.395 200.892 188.992 199.902 188.625C198.949 188.222 197.977 187.8 196.987 187.36C196.034 186.92 195.154 186.388 194.347 185.765C193.541 185.142 192.881 184.39 192.367 183.51C191.891 182.63 191.652 181.585 191.652 180.375C191.652 179.055 191.909 177.937 192.422 177.02C192.936 176.067 193.632 175.278 194.512 174.655C195.392 173.995 196.382 173.518 197.482 173.225C198.582 172.932 199.682 172.785 200.782 172.785C201.589 172.785 202.396 172.858 203.202 173.005C204.046 173.115 204.871 173.317 205.677 173.61C206.521 173.867 207.291 174.233 207.987 174.71L206.337 178.78ZM221.271 193.74C221.271 194.583 221.418 195.298 221.711 195.885C222.041 196.435 222.499 196.857 223.086 197.15C223.673 197.407 224.369 197.59 225.176 197.7L223.691 201.715C221.161 201.458 219.273 200.67 218.026 199.35C216.779 198.03 216.156 196.16 216.156 193.74V162.5H221.271V173.5H226.991L225.726 178.175H221.271V193.74ZM244.045 182.3C244.045 181.127 243.88 180.173 243.55 179.44C243.257 178.707 242.817 178.138 242.23 177.735C241.68 177.295 240.984 176.983 240.14 176.8C239.297 176.617 238.344 176.525 237.28 176.525L237.665 172.95C239.792 172.95 241.57 173.152 243 173.555C244.467 173.922 245.64 174.563 246.52 175.48C247.437 176.36 248.097 177.533 248.5 179C248.904 180.467 249.105 182.282 249.105 184.445V201C248.702 201.037 248.225 201.092 247.675 201.165C247.125 201.238 246.52 201.293 245.86 201.33C245.2 201.403 244.504 201.44 243.77 201.44C243.074 201.477 242.359 201.513 241.625 201.55C240.929 201.587 240.25 201.605 239.59 201.605C237.94 201.605 236.4 201.458 234.97 201.165C233.577 200.908 232.349 200.432 231.285 199.735C230.222 199.002 229.379 198.03 228.755 196.82C228.169 195.573 227.875 194.033 227.875 192.2V187.085C227.875 185.655 228.077 184.427 228.48 183.4C228.92 182.337 229.507 181.493 230.24 180.87C230.974 180.21 231.799 179.715 232.715 179.385C233.669 179.055 234.659 178.89 235.685 178.89C236.712 178.89 237.739 179.037 238.765 179.33C239.792 179.587 240.764 179.972 241.68 180.485C242.634 180.998 243.422 181.603 244.045 182.3ZM244.045 186.15C243.605 185.893 242.982 185.6 242.175 185.27C241.369 184.903 240.489 184.592 239.535 184.335C238.619 184.078 237.684 183.95 236.73 183.95C236.29 183.95 235.85 184.005 235.41 184.115C234.97 184.225 234.567 184.408 234.2 184.665C233.834 184.922 233.54 185.307 233.32 185.82C233.1 186.297 232.99 186.902 232.99 187.635V191.375C232.99 192.292 233.082 193.098 233.265 193.795C233.449 194.492 233.779 195.078 234.255 195.555C234.732 196.032 235.41 196.398 236.29 196.655C237.207 196.875 238.399 196.985 239.865 196.985C240.232 196.948 240.599 196.93 240.965 196.93C241.369 196.893 241.754 196.857 242.12 196.82C242.487 196.783 242.817 196.765 243.11 196.765C243.404 196.728 243.624 196.71 243.77 196.71C243.954 196.673 244.045 196.655 244.045 196.655V186.15Z" fill="black"/>
</g>
<defs>
<filter id="filter0_d_39_143" x="10.1592" y="162.5" width="242.946" height="58.1599" filterUnits="userSpaceOnUse" color-interpolation-filters="sRGB">
<feFlood flood-opacity="0" result="BackgroundImageFix"/>
<feColorMatrix in="SourceAlpha" type="matrix" values="0 0 0 0 0 0 0 0 0 0 0 0 0 0 0 0 0 0 127 0" result="hardAlpha"/>
<feOffset dy="4"/>
<feGaussianBlur stdDeviation="2"/>
<feComposite in2="hardAlpha" operator="out"/>
<feColorMatrix type="matrix" values="0 0 0 0 1 0 0 0 0 1 0 0 0 0 1 0 0 0 0.25 0"/>
<feBlend mode="normal" in2="BackgroundImageFix" result="effect1_dropShadow_39_143"/>
<feBlend mode="normal" in="SourceGraphic" in2="effect1_dropShadow_39_143" result="shape"/>
</filter>
</defs>
</svg>
