<svg width="263" height="350" viewBox="0 0 263 350" fill="none" xmlns="http://www.w3.org/2000/svg">
<rect width="263" height="350" rx="11" fill="white"/>
<g filter="url(#filter0_d_39_143)">
<path d="M12.0643 201V162.5H20.0943V193.795H31.9743V201H12.0643ZM50.2489 181.585C50.2489 180.815 50.1389 180.173 49.9189 179.66C49.6989 179.11 49.3872 178.688 48.9839 178.395C48.5806 178.102 48.0856 177.882 47.4989 177.735C46.9489 177.588 46.3256 177.515 45.6289 177.515L46.6189 172.95C48.7456 172.95 50.5606 173.133 52.0639 173.5C53.5672 173.867 54.7772 174.49 55.6939 175.37C56.6106 176.213 57.2706 177.35 57.6739 178.78C58.1139 180.21 58.3339 181.988 58.3339 184.115V201C57.7472 201.073 57.1422 201.147 56.5189 201.22C55.8956 201.293 55.2539 201.348 54.5939 201.385C53.9706 201.458 53.3106 201.495 52.6139 201.495C51.9539 201.532 51.2756 201.55 50.5789 201.55C49.8822 201.587 49.1672 201.605 48.4339 201.605C46.8572 201.605 45.3906 201.458 44.0339 201.165C42.6772 200.872 41.4672 200.377 40.4039 199.68C39.3772 198.947 38.5706 197.993 37.9839 196.82C37.3972 195.647 37.1039 194.18 37.1039 192.42V187.305C37.1039 185.912 37.2872 184.702 37.6539 183.675C38.0206 182.648 38.5339 181.805 39.1939 181.145C39.8539 180.485 40.6056 179.99 41.4489 179.66C42.3289 179.33 43.2639 179.165 44.2539 179.165C45.0606 179.165 45.8489 179.275 46.6189 179.495C47.4256 179.715 48.1406 180.008 48.7639 180.375C49.4239 180.705 49.9189 181.108 50.2489 181.585ZM50.3589 187.47C50.2122 187.36 49.9556 187.232 49.5889 187.085C49.2222 186.902 48.8006 186.737 48.3239 186.59C47.8839 186.443 47.4256 186.37 46.9489 186.37C46.6922 186.37 46.4539 186.407 46.2339 186.48C46.0139 186.517 45.8122 186.608 45.6289 186.755C45.4822 186.865 45.3539 187.03 45.2439 187.25C45.1706 187.47 45.1339 187.745 45.1339 188.075V192.42C45.1339 192.823 45.1706 193.172 45.2439 193.465C45.3539 193.758 45.5189 194.033 45.7389 194.29C45.9589 194.51 46.2706 194.675 46.6739 194.785C47.1139 194.895 47.6639 194.95 48.3239 194.95C48.4339 194.95 48.5622 194.95 48.7089 194.95C48.8922 194.913 49.0756 194.895 49.2589 194.895C49.4789 194.858 49.6622 194.84 49.8089 194.84C49.9556 194.84 50.0839 194.84 50.1939 194.84C50.3039 194.803 50.3589 194.785 50.3589 194.785V187.47ZM83.6816 173.445V180.705L74.2216 193.41L84.2316 193.465V201H63.9366V193.41L73.3966 180.815L64.4316 180.76V173.445H83.6816ZM113.126 178.285C112.026 178.505 111.293 178.982 110.926 179.715C110.596 180.412 110.431 181.237 110.431 182.19V204.245C110.431 206.005 110.065 207.508 109.331 208.755C108.635 210.038 107.608 211.028 106.251 211.725C104.931 212.422 103.373 212.77 101.576 212.77L99.2114 206.115C99.688 206.115 100.11 206.023 100.476 205.84C100.88 205.657 101.228 205.4 101.521 205.07C101.815 204.777 102.035 204.428 102.181 204.025C102.328 203.658 102.401 203.255 102.401 202.815V200.01C102.108 200.193 101.705 200.395 101.191 200.615C100.715 200.835 100.146 201 99.4864 201.11C98.8264 201.257 98.093 201.33 97.2864 201.33C96.333 201.33 95.398 201.183 94.4814 200.89C93.6014 200.597 92.7764 200.12 92.0064 199.46C91.273 198.763 90.6864 197.828 90.2464 196.655C89.8064 195.482 89.5864 194.015 89.5864 192.255V173.335H97.6164V191.43C97.6164 191.76 97.6714 192.09 97.7814 192.42C97.8914 192.713 98.038 192.97 98.2214 193.19C98.4047 193.373 98.643 193.538 98.9364 193.685C99.2297 193.795 99.5414 193.85 99.8714 193.85C100.201 193.85 100.513 193.777 100.806 193.63C101.136 193.447 101.411 193.227 101.631 192.97C101.888 192.713 102.071 192.42 102.181 192.09C102.328 191.723 102.401 191.338 102.401 190.935V180.925C102.401 179.202 102.731 177.735 103.391 176.525C104.088 175.315 105.06 174.398 106.306 173.775C107.553 173.152 109.038 172.84 110.761 172.84L113.126 178.285ZM146.537 162.5C147.967 162.5 149.397 162.72 150.827 163.16C152.293 163.563 153.613 164.278 154.787 165.305C155.96 166.332 156.895 167.762 157.592 169.595C158.288 171.428 158.618 173.738 158.582 176.525C158.545 179.532 158.178 181.97 157.482 183.84C156.822 185.71 155.905 187.158 154.732 188.185C153.595 189.212 152.312 189.927 150.882 190.33C149.488 190.697 148.04 190.88 146.537 190.88H142.577V201H134.547V162.5H146.537ZM142.577 183.565H144.997C145.987 183.565 146.812 183.473 147.472 183.29C148.168 183.107 148.737 182.758 149.177 182.245C149.653 181.732 149.983 181.017 150.167 180.1C150.387 179.183 150.497 178.01 150.497 176.58C150.497 175.223 150.387 174.123 150.167 173.28C149.983 172.4 149.653 171.722 149.177 171.245C148.737 170.768 148.168 170.457 147.472 170.31C146.812 170.127 145.987 170.035 144.997 170.035H142.577V183.565ZM175.793 181.585C175.793 180.815 175.683 180.173 175.463 179.66C175.243 179.11 174.931 178.688 174.528 178.395C174.125 178.102 173.63 177.882 173.043 177.735C172.493 177.588 171.87 177.515 171.173 177.515L172.163 172.95C174.29 172.95 176.105 173.133 177.608 173.5C179.111 173.867 180.321 174.49 181.238 175.37C182.155 176.213 182.815 177.35 183.218 178.78C183.658 180.21 183.878 181.988 183.878 184.115V201C183.291 201.073 182.686 201.147 182.063 201.22C181.44 201.293 180.798 201.348 180.138 201.385C179.515 201.458 178.855 201.495 178.158 201.495C177.498 201.532 176.82 201.55 176.123 201.55C175.426 201.587 174.711 201.605 173.978 201.605C172.401 201.605 170.935 201.458 169.578 201.165C168.221 200.872 167.011 200.377 165.948 199.68C164.921 198.947 164.115 197.993 163.528 196.82C162.941 195.647 162.648 194.18 162.648 192.42V187.305C162.648 185.912 162.831 184.702 163.198 183.675C163.565 182.648 164.078 181.805 164.738 181.145C165.398 180.485 166.15 179.99 166.993 179.66C167.873 179.33 168.808 179.165 169.798 179.165C170.605 179.165 171.393 179.275 172.163 179.495C172.97 179.715 173.685 180.008 174.308 180.375C174.968 180.705 175.463 181.108 175.793 181.585ZM175.903 187.47C175.756 187.36 175.5 187.232 175.133 187.085C174.766 186.902 174.345 186.737 173.868 186.59C173.428 186.443 172.97 186.37 172.493 186.37C172.236 186.37 171.998 186.407 171.778 186.48C171.558 186.517 171.356 186.608 171.173 186.755C171.026 186.865 170.898 187.03 170.788 187.25C170.715 187.47 170.678 187.745 170.678 188.075V192.42C170.678 192.823 170.715 193.172 170.788 193.465C170.898 193.758 171.063 194.033 171.283 194.29C171.503 194.51 171.815 194.675 172.218 194.785C172.658 194.895 173.208 194.95 173.868 194.95C173.978 194.95 174.106 194.95 174.253 194.95C174.436 194.913 174.62 194.895 174.803 194.895C175.023 194.858 175.206 194.84 175.353 194.84C175.5 194.84 175.628 194.84 175.738 194.84C175.848 194.803 175.903 194.785 175.903 194.785V187.47ZM205.588 181.255C205.258 181.108 204.836 180.962 204.323 180.815C203.809 180.632 203.259 180.503 202.673 180.43C202.086 180.32 201.499 180.265 200.913 180.265C200.656 180.265 200.399 180.283 200.143 180.32C199.923 180.32 199.703 180.357 199.483 180.43C199.263 180.503 199.079 180.613 198.933 180.76C198.823 180.907 198.768 181.09 198.768 181.31C198.768 181.713 198.969 182.062 199.373 182.355C199.813 182.612 200.381 182.868 201.078 183.125C201.774 183.382 202.526 183.657 203.333 183.95C204.176 184.243 205.001 184.61 205.808 185.05C206.651 185.49 207.421 186.04 208.118 186.7C208.814 187.323 209.364 188.112 209.768 189.065C210.208 190.018 210.428 191.173 210.428 192.53C210.428 194.07 210.134 195.427 209.548 196.6C208.961 197.737 208.173 198.69 207.183 199.46C206.229 200.23 205.129 200.817 203.883 201.22C202.673 201.623 201.426 201.825 200.143 201.825C198.126 201.825 196.183 201.403 194.313 200.56C192.443 199.68 190.811 198.47 189.418 196.93L193.323 191.925C193.799 192.365 194.368 192.768 195.028 193.135C195.688 193.465 196.366 193.74 197.063 193.96C197.759 194.18 198.419 194.29 199.043 194.29C199.373 194.29 199.684 194.253 199.978 194.18C200.308 194.107 200.601 194.015 200.858 193.905C201.114 193.758 201.316 193.575 201.463 193.355C201.646 193.098 201.738 192.805 201.738 192.475C201.738 191.998 201.536 191.613 201.133 191.32C200.729 190.99 200.198 190.678 199.538 190.385C198.878 190.092 198.144 189.78 197.338 189.45C196.568 189.12 195.779 188.735 194.973 188.295C194.203 187.855 193.488 187.323 192.828 186.7C192.168 186.04 191.636 185.27 191.233 184.39C190.829 183.473 190.628 182.392 190.628 181.145C190.628 179.788 190.866 178.597 191.343 177.57C191.819 176.507 192.479 175.627 193.323 174.93C194.203 174.197 195.229 173.647 196.403 173.28C197.576 172.913 198.859 172.73 200.253 172.73C201.206 172.73 202.141 172.84 203.058 173.06C204.011 173.243 204.909 173.518 205.753 173.885C206.596 174.215 207.329 174.6 207.953 175.04L205.588 181.255ZM223.917 191.76C223.917 192.53 224.064 193.135 224.357 193.575C224.687 193.978 225.146 194.272 225.732 194.455C226.319 194.638 227.034 194.73 227.877 194.73L225.182 201.715C222.176 201.642 219.866 200.835 218.252 199.295C216.676 197.755 215.887 195.555 215.887 192.695V162.5H223.917V173.5H228.977L227.657 181.2H223.917V191.76ZM243.063 181.585C243.063 180.815 242.953 180.173 242.733 179.66C242.513 179.11 242.201 178.688 241.798 178.395C241.394 178.102 240.899 177.882 240.313 177.735C239.763 177.588 239.139 177.515 238.443 177.515L239.433 172.95C241.559 172.95 243.374 173.133 244.878 173.5C246.381 173.867 247.591 174.49 248.508 175.37C249.424 176.213 250.084 177.35 250.488 178.78C250.928 180.21 251.148 181.988 251.148 184.115V201C250.561 201.073 249.956 201.147 249.333 201.22C248.709 201.293 248.068 201.348 247.408 201.385C246.784 201.458 246.124 201.495 245.428 201.495C244.768 201.532 244.089 201.55 243.393 201.55C242.696 201.587 241.981 201.605 241.248 201.605C239.671 201.605 238.204 201.458 236.848 201.165C235.491 200.872 234.281 200.377 233.218 199.68C232.191 198.947 231.384 197.993 230.798 196.82C230.211 195.647 229.918 194.18 229.918 192.42V187.305C229.918 185.912 230.101 184.702 230.468 183.675C230.834 182.648 231.348 181.805 232.008 181.145C232.668 180.485 233.419 179.99 234.263 179.66C235.143 179.33 236.078 179.165 237.068 179.165C237.874 179.165 238.663 179.275 239.433 179.495C240.239 179.715 240.954 180.008 241.578 180.375C242.238 180.705 242.733 181.108 243.063 181.585ZM243.173 187.47C243.026 187.36 242.769 187.232 242.403 187.085C242.036 186.902 241.614 186.737 241.138 186.59C240.698 186.443 240.239 186.37 239.763 186.37C239.506 186.37 239.268 186.407 239.048 186.48C238.828 186.517 238.626 186.608 238.443 186.755C238.296 186.865 238.168 187.03 238.058 187.25C237.984 187.47 237.948 187.745 237.948 188.075V192.42C237.948 192.823 237.984 193.172 238.058 193.465C238.168 193.758 238.333 194.033 238.553 194.29C238.773 194.51 239.084 194.675 239.488 194.785C239.928 194.895 240.478 194.95 241.138 194.95C241.248 194.95 241.376 194.95 241.523 194.95C241.706 194.913 241.889 194.895 242.073 194.895C242.293 194.858 242.476 194.84 242.623 194.84C242.769 194.84 242.898 194.84 243.008 194.84C243.118 194.803 243.173 194.785 243.173 194.785V187.47Z" fill="#F0BEBE"/>
</g>
<defs>
<filter id="filter0_d_39_143" x="8.06445" y="162.5" width="247.083" height="58.27" filterUnits="userSpaceOnUse" color-interpolation-filters="sRGB">
<feFlood flood-opacity="0" result="BackgroundImageFix"/>
<feColorMatrix in="SourceAlpha" type="matrix" values="0 0 0 0 0 0 0 0 0 0 0 0 0 0 0 0 0 0 127 0" result="hardAlpha"/>
<feOffset dy="4"/>
<feGaussianBlur stdDeviation="2"/>
<feComposite in2="hardAlpha" operator="out"/>
<feColorMatrix type="matrix" values="0 0 0 0 1 0 0 0 0 1 0 0 0 0 1 0 0 0 0.25 0"/>
<feBlend mode="normal" in2="BackgroundImageFix" result="effect1_dropShadow_39_143"/>
<feBlend mode="normal" in="SourceGraphic" in2="effect1_dropShadow_39_143" result="shape"/>
</filter>
</defs>
</svg>
