<svg width="231" height="148" viewBox="0 0 231 148" fill="none" xmlns="http://www.w3.org/2000/svg">
<g filter="url(#filter0_d_59_59)">
<path d="M73.8116 43C72.3982 43 71.0116 42.6133 69.6516 41.84C68.3182 41.0667 67.0516 40.0533 65.8516 38.8C64.6516 37.52 63.5449 36.12 62.5316 34.6C61.5182 33.0533 60.6116 31.5067 59.8116 29.96C59.0382 28.4133 58.3982 26.9867 57.8916 25.68C57.4116 24.3467 57.0916 23.2667 56.9316 22.44L60.9716 13.32C61.5049 15.0533 62.0782 16.88 62.6916 18.8C63.3316 20.6933 63.9849 22.5867 64.6516 24.48C65.3449 26.3733 66.0382 28.16 66.7316 29.84C67.4249 31.52 68.1049 33.0267 68.7716 34.36C69.4649 35.6667 70.1182 36.6933 70.7316 37.44C71.3716 38.1867 71.9582 38.56 72.4916 38.56C73.1582 38.56 73.5716 38.1067 73.7316 37.2C73.9182 36.2933 73.9182 35.0933 73.7316 33.6C73.5716 32.1067 73.2782 30.4533 72.8516 28.64C72.4516 26.8 71.9849 24.9467 71.4516 23.08C70.9449 21.2133 70.4382 19.4667 69.9316 17.84C69.4249 16.1867 68.9982 14.8 68.6516 13.68L78.8116 11C79.2382 12.1733 79.6649 13.6267 80.0916 15.36C80.5182 17.0667 80.8916 18.92 81.2116 20.92C81.5316 22.92 81.7449 24.96 81.8516 27.04C81.9849 29.0933 81.9582 31.08 81.7716 33C81.5849 34.8933 81.1849 36.6 80.5716 38.12C79.9849 39.6133 79.1449 40.8 78.0516 41.68C76.9582 42.56 75.5449 43 73.8116 43ZM60.6116 43.24L49.5316 43C49.9849 38.3867 50.2516 33.68 50.3316 28.88C50.4382 24.08 50.3049 19.4 49.9316 14.84L60.9716 13.32L59.0116 21.72C59.0916 23.48 59.1982 25.28 59.3316 27.12C59.4649 28.9333 59.5982 30.7067 59.7316 32.44C59.8916 34.1733 60.0249 35.7733 60.1316 37.24C60.2649 38.68 60.3716 39.9333 60.4516 41C60.5582 42.04 60.6116 42.7867 60.6116 43.24ZM103.063 43.08C100.93 43.08 98.8768 42.7467 96.9034 42.08C94.9568 41.4133 93.2101 40.4533 91.6634 39.2C90.1434 37.9467 88.9301 36.44 88.0234 34.68C87.1434 32.92 86.7034 30.9467 86.7034 28.76C86.7034 25.9333 87.2234 23.5333 88.2634 21.56C89.3301 19.56 90.7168 17.9467 92.4234 16.72C94.1568 15.4667 96.0634 14.5467 98.1434 13.96C100.25 13.3733 102.343 13.08 104.423 13.08C106.077 13.08 107.663 13.2533 109.183 13.6C110.73 13.92 112.077 14.3867 113.223 15L112.263 21.76C111.25 21.3867 110.223 21.12 109.183 20.96C108.143 20.8 107.117 20.72 106.103 20.72C104.343 20.72 102.81 21.1067 101.503 21.88C100.197 22.6533 99.1834 23.68 98.4634 24.96C97.7434 26.24 97.3834 27.6533 97.3834 29.2C97.3834 31.04 97.6101 32.56 98.0634 33.76C98.5168 34.9333 99.1301 35.8533 99.9034 36.52C100.677 37.1867 101.543 37.6533 102.503 37.92C103.49 38.1867 104.503 38.32 105.543 38.32C106.637 38.32 107.743 38.2 108.863 37.96C110.01 37.6933 111.09 37.3467 112.103 36.92V40.84C110.663 41.5867 109.17 42.1467 107.623 42.52C106.103 42.8933 104.583 43.08 103.063 43.08ZM133.531 43.08C131.397 43.08 129.344 42.7467 127.371 42.08C125.424 41.4133 123.677 40.4533 122.131 39.2C120.611 37.9467 119.397 36.44 118.491 34.68C117.611 32.92 117.171 30.9467 117.171 28.76C117.171 25.9333 117.691 23.5333 118.731 21.56C119.797 19.56 121.184 17.9467 122.891 16.72C124.624 15.4667 126.531 14.5467 128.611 13.96C130.717 13.3733 132.811 13.08 134.891 13.08C136.544 13.08 138.131 13.2533 139.651 13.6C141.197 13.92 142.544 14.3867 143.691 15L142.731 21.76C141.717 21.3867 140.691 21.12 139.651 20.96C138.611 20.8 137.584 20.72 136.571 20.72C134.811 20.72 133.277 21.1067 131.971 21.88C130.664 22.6533 129.651 23.68 128.931 24.96C128.211 26.24 127.851 27.6533 127.851 29.2C127.851 31.04 128.077 32.56 128.531 33.76C128.984 34.9333 129.597 35.8533 130.371 36.52C131.144 37.1867 132.011 37.6533 132.971 37.92C133.957 38.1867 134.971 38.32 136.011 38.32C137.104 38.32 138.211 38.2 139.331 37.96C140.477 37.6933 141.557 37.3467 142.571 36.92V40.84C141.131 41.5867 139.637 42.1467 138.091 42.52C136.571 42.8933 135.051 43.08 133.531 43.08ZM161.198 43.32C159.224 43.32 157.504 42.8133 156.038 41.8C154.598 40.76 153.358 39.3867 152.318 37.68C151.304 35.9733 150.478 34.0667 149.838 31.96C149.198 29.8267 148.718 27.6533 148.398 25.44C148.078 23.2 147.878 21.0533 147.798 19C147.744 16.9467 147.771 15.16 147.878 13.64L158.838 12C158.731 12.5067 158.638 13.3733 158.558 14.6C158.478 15.8 158.424 17.2133 158.398 18.84C158.371 20.4667 158.384 22.1733 158.438 23.96C158.491 25.7467 158.611 27.5067 158.798 29.24C158.984 30.9733 159.238 32.5467 159.558 33.96C159.878 35.3467 160.291 36.4667 160.798 37.32C161.304 38.1467 161.918 38.56 162.638 38.56C163.784 38.56 164.744 38.12 165.518 37.24C166.291 36.3333 166.918 35.1333 167.398 33.64C167.878 32.12 168.238 30.4667 168.478 28.68C168.744 26.8667 168.904 25.04 168.958 23.2C169.038 21.3333 169.051 19.6 168.998 18C168.944 16.4 168.864 15.0667 168.758 14L172.918 22.56C172.891 23.8667 172.824 25.28 172.718 26.8C172.611 28.32 172.424 29.8667 172.158 31.44C171.891 32.9867 171.491 34.4667 170.958 35.88C170.451 37.2933 169.771 38.56 168.918 39.68C168.064 40.8 166.998 41.6933 165.718 42.36C164.464 43 162.958 43.32 161.198 43.32ZM169.838 43.72C169.944 40.84 169.998 38.16 169.998 35.68C170.024 33.2 169.998 30.8133 169.918 28.52C169.838 26.2267 169.704 23.9067 169.518 21.56C169.331 19.1867 169.078 16.6667 168.758 14L179.838 12.32C179.891 14.7733 179.904 17.16 179.878 19.48C179.851 21.7733 179.758 24.0933 179.598 26.44C179.464 28.7867 179.264 31.2533 178.998 33.84C178.731 36.4267 178.398 39.24 177.998 42.28L169.838 43.72ZM33.2416 110.8C33.3482 108.293 33.4282 106.053 33.4816 104.08C33.5349 102.107 33.5482 100.267 33.5216 98.56C33.5216 96.8267 33.4816 95.12 33.4016 93.44C33.3482 91.7333 33.2416 89.9333 33.0816 88.04C32.9216 86.12 32.7216 83.96 32.4816 81.56L43.5616 82.44C43.5616 84.6 43.5349 86.5467 43.4816 88.28C43.4549 90.0133 43.3882 91.6667 43.2816 93.24C43.2016 94.7867 43.0682 96.36 42.8816 97.96C42.7216 99.5333 42.5082 101.253 42.2416 103.12C42.0016 104.96 41.7082 107.067 41.3616 109.44L33.2416 110.8ZM49.6816 99.48C48.0549 99.4267 46.2682 99.3333 44.3216 99.2C42.3749 99.04 40.3349 98.8267 38.2016 98.56L38.2416 94.08C40.6682 94.32 42.8149 94.4533 44.6816 94.48C46.5749 94.5067 48.2816 94.36 49.8016 94.04L49.6816 99.48ZM53.4416 87.64C51.7616 87.1867 50.0816 86.8933 48.4016 86.76C46.7482 86.6 45.1616 86.52 43.6416 86.52C42.1216 86.52 40.7216 86.56 39.4416 86.64C38.1882 86.6933 37.1349 86.72 36.2816 86.72L32.4816 81.56C33.4949 81.4533 34.7349 81.3467 36.2016 81.24C37.6949 81.1067 39.2816 80.9867 40.9616 80.88C42.6682 80.7733 44.3616 80.68 46.0416 80.6C47.7216 80.4933 49.2682 80.4133 50.6816 80.36C52.1216 80.28 53.3082 80.2267 54.2416 80.2L53.4416 87.64ZM130.196 89.32C132.143 86.84 134.023 84.9867 135.836 83.76C137.676 82.5067 139.449 81.68 141.156 81.28C142.863 80.88 144.463 80.68 145.956 80.68C148.009 80.68 149.769 81.1467 151.236 82.08C152.729 83.0133 153.876 84.2667 154.676 85.84C155.476 87.4133 155.876 89.1733 155.876 91.12C155.876 92.8267 155.476 94.6 154.676 96.44C153.876 98.28 152.676 100.093 151.076 101.88C149.476 103.667 147.476 105.347 145.076 106.92C142.703 108.467 139.929 109.827 136.756 111L136.556 106C138.396 104.987 139.969 103.867 141.276 102.64C142.609 101.413 143.689 100.147 144.516 98.84C145.369 97.5333 145.983 96.24 146.356 94.96C146.756 93.68 146.956 92.48 146.956 91.36C146.956 90.3733 146.783 89.48 146.436 88.68C146.089 87.8533 145.596 87.2 144.956 86.72C144.343 86.2133 143.583 85.96 142.676 85.96C141.876 85.96 141.076 86.0667 140.276 86.28C139.476 86.4933 138.663 86.8667 137.836 87.4C137.036 87.9067 136.209 88.64 135.356 89.6C134.529 90.5333 133.676 91.72 132.796 93.16L130.196 89.32ZM128.596 111.32C128.703 108.387 128.756 105.733 128.756 103.36C128.783 100.987 128.756 98.6933 128.676 96.48C128.596 94.2667 128.463 92 128.276 89.68C128.089 87.36 127.836 84.8 127.516 82L138.596 80.32C138.596 82.96 138.583 85.32 138.556 87.4C138.529 89.48 138.476 91.4133 138.396 93.2C138.343 94.9867 138.249 96.7733 138.116 98.56C137.983 100.32 137.809 102.2 137.596 104.2C137.383 106.2 137.103 108.467 136.756 111L128.596 111.32ZM160.938 111.72C161.071 108.147 161.125 104.76 161.098 101.56C161.071 98.36 160.951 95.1733 160.738 92C160.551 88.8267 160.258 85.4933 159.858 82L170.938 80.32C170.991 83.0667 170.991 85.6267 170.938 88C170.911 90.3467 170.818 92.6533 170.658 94.92C170.525 97.1867 170.325 99.56 170.058 102.04C169.818 104.52 169.498 107.267 169.098 110.28L160.938 111.72ZM177.101 110.48C177.208 107.973 177.288 105.747 177.341 103.8C177.394 101.853 177.408 100.04 177.381 98.36C177.381 96.6533 177.341 94.9733 177.261 93.32C177.208 91.6667 177.101 89.8933 176.941 88C176.781 86.1067 176.581 83.96 176.341 81.56L187.021 82.44C187.021 84.6 187.008 86.5467 186.981 88.28C186.981 89.9867 186.954 91.6 186.901 93.12C186.848 94.64 186.754 96.1867 186.621 97.76C186.488 99.3067 186.301 101 186.061 102.84C185.848 104.653 185.568 106.747 185.221 109.12L177.101 110.48ZM199.301 111.2C198.101 111.2 196.594 111.187 194.781 111.16C192.994 111.133 191.061 111.08 188.981 111C186.901 110.947 184.834 110.88 182.781 110.8C180.728 110.693 178.834 110.587 177.101 110.48L179.141 105.76C180.394 105.76 181.821 105.747 183.421 105.72C185.048 105.667 186.768 105.6 188.581 105.52C190.394 105.44 192.208 105.32 194.021 105.16C195.861 105 197.621 104.8 199.301 104.56V111.2ZM194.061 99.48C192.541 99.16 190.768 99.0133 188.741 99.04C186.741 99.0667 184.528 99.2 182.101 99.44L182.061 94.96C184.194 94.6667 186.301 94.4533 188.381 94.32C190.461 94.16 192.314 94.0667 193.941 94.04L194.061 99.48ZM198.501 87.64C196.821 87.2933 195.088 87.0533 193.301 86.92C191.514 86.7867 189.781 86.7067 188.101 86.68C186.421 86.6533 184.888 86.6533 183.501 86.68C182.114 86.7067 180.994 86.72 180.141 86.72L176.341 81.56C177.354 81.4533 178.608 81.3467 180.101 81.24C181.621 81.1067 183.248 80.9867 184.981 80.88C186.714 80.7733 188.434 80.68 190.141 80.6C191.874 80.4933 193.461 80.4133 194.901 80.36C196.368 80.28 197.568 80.2267 198.501 80.2V87.64Z" fill="white"/>
<path d="M71.5053 111.52C68.892 111.52 66.5986 111.093 64.6253 110.24C62.6786 109.387 61.052 108.24 59.7453 106.8C58.4386 105.333 57.452 103.693 56.7853 101.88C56.1453 100.067 55.8253 98.2 55.8253 96.28C55.8253 94.3333 56.1586 92.44 56.8253 90.6C57.492 88.7333 58.4786 87.0533 59.7853 85.56C61.1186 84.0667 62.7586 82.88 64.7053 82C66.652 81.0933 68.892 80.64 71.4253 80.64C74.0386 80.64 76.3186 81.08 78.2653 81.96C80.2386 82.84 81.892 84.0267 83.2253 85.52C84.5586 86.9867 85.5586 88.64 86.2253 90.48C86.892 92.32 87.2253 94.2 87.2253 96.12C87.2253 98.04 86.892 99.92 86.2253 101.76C85.5586 103.6 84.5586 105.253 83.2253 106.72C81.9186 108.187 80.2786 109.36 78.3053 110.24C76.3586 111.093 74.092 111.52 71.5053 111.52ZM72.1853 102C73.3853 102 74.452 101.733 75.3853 101.2C76.3453 100.667 77.1453 99.96 77.7853 99.08C78.4253 98.2 78.9053 97.2133 79.2253 96.12C79.572 95.0267 79.7453 93.9067 79.7453 92.76C79.7453 91.6133 79.572 90.5333 79.2253 89.52C78.9053 88.48 78.4386 87.56 77.8253 86.76C77.212 85.9333 76.4653 85.2933 75.5853 84.84C74.7053 84.36 73.7186 84.12 72.6253 84.12C70.9986 84.12 69.6653 84.5333 68.6253 85.36C67.5853 86.16 66.812 87.2267 66.3053 88.56C65.7986 89.8667 65.5453 91.3067 65.5453 92.88C65.5453 94.0267 65.692 95.1467 65.9853 96.24C66.2786 97.3067 66.7053 98.28 67.2653 99.16C67.852 100.013 68.5586 100.707 69.3853 101.24C70.212 101.747 71.1453 102 72.1853 102ZM107.051 111.52C104.437 111.52 102.144 111.093 100.171 110.24C98.224 109.387 96.5973 108.24 95.2906 106.8C93.984 105.333 92.9973 103.693 92.3306 101.88C91.6906 100.067 91.3706 98.2 91.3706 96.28C91.3706 94.3333 91.704 92.44 92.3706 90.6C93.0373 88.7333 94.024 87.0533 95.3306 85.56C96.664 84.0667 98.304 82.88 100.251 82C102.197 81.0933 104.437 80.64 106.971 80.64C109.584 80.64 111.864 81.08 113.811 81.96C115.784 82.84 117.437 84.0267 118.771 85.52C120.104 86.9867 121.104 88.64 121.771 90.48C122.437 92.32 122.771 94.2 122.771 96.12C122.771 98.04 122.437 99.92 121.771 101.76C121.104 103.6 120.104 105.253 118.771 106.72C117.464 108.187 115.824 109.36 113.851 110.24C111.904 111.093 109.637 111.52 107.051 111.52ZM107.731 102C108.931 102 109.997 101.733 110.931 101.2C111.891 100.667 112.691 99.96 113.331 99.08C113.971 98.2 114.451 97.2133 114.771 96.12C115.117 95.0267 115.291 93.9067 115.291 92.76C115.291 91.6133 115.117 90.5333 114.771 89.52C114.451 88.48 113.984 87.56 113.371 86.76C112.757 85.9333 112.011 85.2933 111.131 84.84C110.251 84.36 109.264 84.12 108.171 84.12C106.544 84.12 105.211 84.5333 104.171 85.36C103.131 86.16 102.357 87.2267 101.851 88.56C101.344 89.8667 101.091 91.3067 101.091 92.88C101.091 94.0267 101.237 95.1467 101.531 96.24C101.824 97.3067 102.251 98.28 102.811 99.16C103.397 100.013 104.104 100.707 104.931 101.24C105.757 101.747 106.691 102 107.731 102Z" fill="#D74C4C"/>
</g>
<g filter="url(#filter1_d_59_59)">
<path d="M54.5 121C58.5 131 74.3388 134.5 87.5 134.5C100.661 134.5 115 129.5 122.5 121" stroke="#D74C4C" stroke-width="11" stroke-linecap="round"/>
</g>
<defs>
<filter id="filter0_d_59_59" x="28.4814" y="11" width="174.819" height="108.72" filterUnits="userSpaceOnUse" color-interpolation-filters="sRGB">
<feFlood flood-opacity="0" result="BackgroundImageFix"/>
<feColorMatrix in="SourceAlpha" type="matrix" values="0 0 0 0 0 0 0 0 0 0 0 0 0 0 0 0 0 0 127 0" result="hardAlpha"/>
<feOffset dy="4"/>
<feGaussianBlur stdDeviation="2"/>
<feComposite in2="hardAlpha" operator="out"/>
<feColorMatrix type="matrix" values="0 0 0 0 0 0 0 0 0 0 0 0 0 0 0 0 0 0 0.25 0"/>
<feBlend mode="normal" in2="BackgroundImageFix" result="effect1_dropShadow_59_59"/>
<feBlend mode="normal" in="SourceGraphic" in2="effect1_dropShadow_59_59" result="shape"/>
</filter>
<filter id="filter1_d_59_59" x="44.9985" y="115.499" width="87.0015" height="32.5015" filterUnits="userSpaceOnUse" color-interpolation-filters="sRGB">
<feFlood flood-opacity="0" result="BackgroundImageFix"/>
<feColorMatrix in="SourceAlpha" type="matrix" values="0 0 0 0 0 0 0 0 0 0 0 0 0 0 0 0 0 0 127 0" result="hardAlpha"/>
<feOffset dy="4"/>
<feGaussianBlur stdDeviation="2"/>
<feComposite in2="hardAlpha" operator="out"/>
<feColorMatrix type="matrix" values="0 0 0 0 0 0 0 0 0 0 0 0 0 0 0 0 0 0 0.25 0"/>
<feBlend mode="normal" in2="BackgroundImageFix" result="effect1_dropShadow_59_59"/>
<feBlend mode="normal" in="SourceGraphic" in2="effect1_dropShadow_59_59" result="shape"/>
</filter>
</defs>
</svg>
